G04 EAGLE Gerber RS-274X export*
G75*
%MOMM*%
%FSLAX34Y34*%
%LPD*%
%IN*%
%IPPOS*%
%AMOC8*
5,1,8,0,0,1.08239X$1,22.5*%
G01*
%ADD10C,0.254000*%


D10*
X0Y2540D02*
X10Y2319D01*
X39Y2099D01*
X87Y1883D01*
X153Y1671D01*
X238Y1467D01*
X340Y1270D01*
X459Y1083D01*
X594Y907D01*
X744Y744D01*
X907Y594D01*
X1083Y459D01*
X1270Y340D01*
X1467Y238D01*
X1671Y153D01*
X1883Y87D01*
X2099Y39D01*
X2319Y10D01*
X2540Y0D01*
X2540Y0D01*
X272222Y2D01*
X272497Y71D01*
X272766Y163D01*
X273025Y278D01*
X273273Y416D01*
X273508Y574D01*
X273729Y753D01*
X273933Y950D01*
X274119Y1164D01*
X274286Y1393D01*
X274432Y1636D01*
X274557Y1891D01*
X274658Y2156D01*
X274737Y2429D01*
X274762Y2542D01*
X274762Y357060D01*
X274752Y357281D01*
X274723Y357501D01*
X274675Y357717D01*
X274609Y357929D01*
X274524Y358133D01*
X274422Y358330D01*
X274303Y358517D01*
X274168Y358693D01*
X274018Y358856D01*
X273855Y359006D01*
X273679Y359141D01*
X273492Y359260D01*
X273295Y359362D01*
X273091Y359447D01*
X272879Y359513D01*
X272663Y359561D01*
X272443Y359590D01*
X272222Y359600D01*
X2540Y359600D01*
X2319Y359590D01*
X2099Y359561D01*
X1883Y359513D01*
X1671Y359447D01*
X1467Y359362D01*
X1270Y359260D01*
X1083Y359141D01*
X907Y359006D01*
X744Y358856D01*
X594Y358693D01*
X459Y358517D01*
X340Y358330D01*
X238Y358133D01*
X153Y357929D01*
X87Y357717D01*
X39Y357501D01*
X10Y357281D01*
X0Y357060D01*
X0Y2540D01*
M02*
