G04 EAGLE Gerber RS-274X export*
G75*
%MOMM*%
%FSLAX34Y34*%
%LPD*%
%INSoldermask Bottom*%
%IPPOS*%
%AMOC8*
5,1,8,0,0,1.08239X$1,22.5*%
G01*
%ADD10R,2.703200X5.303200*%
%ADD11C,18.003200*%
%ADD12C,0.711200*%
%ADD13C,0.803200*%
%ADD14C,0.953200*%
%ADD15C,0.660400*%
%ADD16C,1.003200*%
%ADD17C,1.066800*%
%ADD18C,0.705600*%


D10*
X252194Y97432D03*
X23194Y97432D03*
D11*
X137694Y97432D03*
D12*
X43434Y294894D03*
D13*
X223728Y170942D03*
D14*
X188468Y114554D03*
D15*
X10160Y280416D03*
X20320Y280416D03*
X30480Y280416D03*
X40640Y280416D03*
X45720Y271526D03*
X55880Y271526D03*
X50800Y280416D03*
X60960Y280416D03*
X71120Y280416D03*
X66040Y271526D03*
X151130Y279146D03*
X76200Y271526D03*
X86360Y274066D03*
X81280Y280416D03*
X91440Y280416D03*
X101600Y280416D03*
X96520Y271526D03*
X105410Y272796D03*
X130810Y280416D03*
X140970Y279146D03*
X158750Y272796D03*
X102870Y265176D03*
X158750Y262636D03*
X151130Y256286D03*
X142240Y256286D03*
X104648Y244602D03*
X104648Y234442D03*
X104648Y224282D03*
X114808Y234442D03*
X114808Y244602D03*
X114808Y224282D03*
X124968Y244602D03*
X124968Y234442D03*
X124968Y224282D03*
X135890Y251206D03*
D13*
X202392Y185420D03*
D16*
X246888Y87884D03*
X246888Y77216D03*
X246888Y98552D03*
X246888Y108458D03*
X246888Y118618D03*
X258699Y111252D03*
D17*
X213614Y194056D03*
D14*
X159512Y229504D03*
D18*
X77358Y222250D03*
D14*
X22256Y261030D03*
D12*
X114502Y206671D03*
D18*
X125476Y190654D03*
D16*
X258699Y87376D03*
M02*
