G04 EAGLE Gerber RS-274X export*
G75*
%MOMM*%
%FSLAX34Y34*%
%LPD*%
%INSoldermask Top*%
%IPPOS*%
%AMOC8*
5,1,8,0,0,1.08239X$1,22.5*%
G01*
%ADD10C,0.177800*%
%ADD11R,6.299200X0.025400*%
%ADD12R,6.502400X0.025400*%
%ADD13R,6.604000X0.025400*%
%ADD14R,6.705600X0.025400*%
%ADD15R,6.756400X0.025400*%
%ADD16R,6.807200X0.025400*%
%ADD17R,6.858000X0.025400*%
%ADD18R,6.908800X0.025400*%
%ADD19R,6.934200X0.025400*%
%ADD20R,6.959600X0.025400*%
%ADD21R,7.010400X0.025400*%
%ADD22R,2.159000X0.025400*%
%ADD23R,3.200400X0.025400*%
%ADD24R,0.914400X0.025400*%
%ADD25R,0.508000X0.025400*%
%ADD26R,0.787400X0.025400*%
%ADD27R,0.685800X0.025400*%
%ADD28R,0.762000X0.025400*%
%ADD29R,0.812800X0.025400*%
%ADD30R,0.482600X0.025400*%
%ADD31R,0.406400X0.025400*%
%ADD32R,0.711200X0.025400*%
%ADD33R,0.660400X0.025400*%
%ADD34R,0.304800X0.025400*%
%ADD35R,0.635000X0.025400*%
%ADD36R,0.609600X0.025400*%
%ADD37R,0.279400X0.025400*%
%ADD38R,0.584200X0.025400*%
%ADD39R,0.558800X0.025400*%
%ADD40R,0.533400X0.025400*%
%ADD41R,0.457200X0.025400*%
%ADD42R,0.431800X0.025400*%
%ADD43R,0.381000X0.025400*%
%ADD44R,0.203200X0.025400*%
%ADD45R,0.990600X0.025400*%
%ADD46R,0.736600X0.025400*%
%ADD47R,1.803400X0.025400*%
%ADD48R,0.355600X0.025400*%
%ADD49R,1.778000X0.025400*%
%ADD50R,0.330200X0.025400*%
%ADD51R,1.752600X0.025400*%
%ADD52R,1.727200X0.025400*%
%ADD53R,1.676400X0.025400*%
%ADD54R,0.254000X0.025400*%
%ADD55R,1.651000X0.025400*%
%ADD56R,1.600200X0.025400*%
%ADD57R,0.101600X0.025400*%
%ADD58R,1.549400X0.025400*%
%ADD59R,1.701800X0.025400*%
%ADD60R,0.838200X0.025400*%
%ADD61R,0.025400X0.025400*%
%ADD62R,1.041400X0.025400*%
%ADD63R,0.965200X0.025400*%
%ADD64R,1.016000X0.025400*%
%ADD65R,1.066800X0.025400*%
%ADD66R,1.092200X0.025400*%
%ADD67R,1.143000X0.025400*%
%ADD68R,1.168400X0.025400*%
%ADD69R,1.625600X0.025400*%
%ADD70R,1.193800X0.025400*%
%ADD71R,1.574800X0.025400*%
%ADD72R,1.524000X0.025400*%
%ADD73R,0.228600X0.025400*%
%ADD74R,0.889000X0.025400*%
%ADD75R,0.939800X0.025400*%
%ADD76R,1.244600X0.025400*%
%ADD77R,1.422400X0.025400*%
%ADD78R,2.311400X0.025400*%
%ADD79R,2.946400X0.025400*%
%ADD80R,0.533400X1.041400*%
%ADD81R,0.753200X0.453200*%
%ADD82R,1.253200X2.023200*%
%ADD83R,1.053200X1.003200*%
%ADD84R,1.003200X1.053200*%
%ADD85R,1.453200X0.803200*%
%ADD86R,0.903200X0.703200*%
%ADD87R,1.253200X0.703200*%
%ADD88R,2.203200X1.223200*%
%ADD89R,0.503200X1.053200*%
%ADD90R,1.053200X0.503200*%
%ADD91R,2.903200X2.903200*%
%ADD92R,1.001900X1.177100*%
%ADD93R,1.177100X1.001900*%
%ADD94R,2.203200X1.703200*%
%ADD95C,0.508000*%
%ADD96C,0.711200*%
%ADD97R,1.303200X1.403200*%
%ADD98R,1.678200X0.803200*%
%ADD99R,0.803200X1.678200*%
%ADD100R,1.353200X0.803200*%
%ADD101R,1.124100X1.173400*%
%ADD102R,1.173400X1.124100*%
%ADD103C,0.711200*%
%ADD104C,0.803200*%
%ADD105C,0.953200*%
%ADD106C,0.660400*%
%ADD107C,1.003200*%
%ADD108C,1.066800*%
%ADD109C,0.705600*%


D10*
X158623Y311023D02*
X164691Y311023D01*
X158623Y300101D01*
X164691Y300101D01*
X171337Y300101D02*
X174371Y300101D01*
X171337Y300101D02*
X171253Y300103D01*
X171169Y300109D01*
X171086Y300118D01*
X171003Y300132D01*
X170920Y300149D01*
X170839Y300170D01*
X170759Y300195D01*
X170680Y300224D01*
X170602Y300256D01*
X170526Y300292D01*
X170451Y300331D01*
X170379Y300374D01*
X170308Y300420D01*
X170240Y300469D01*
X170174Y300521D01*
X170111Y300576D01*
X170050Y300634D01*
X169992Y300695D01*
X169937Y300758D01*
X169885Y300824D01*
X169836Y300892D01*
X169790Y300963D01*
X169747Y301035D01*
X169708Y301110D01*
X169672Y301186D01*
X169640Y301264D01*
X169611Y301343D01*
X169586Y301423D01*
X169565Y301504D01*
X169548Y301587D01*
X169534Y301670D01*
X169525Y301753D01*
X169519Y301837D01*
X169517Y301921D01*
X169517Y304955D01*
X169519Y305053D01*
X169525Y305150D01*
X169535Y305248D01*
X169548Y305344D01*
X169566Y305440D01*
X169588Y305536D01*
X169613Y305630D01*
X169642Y305724D01*
X169675Y305816D01*
X169711Y305906D01*
X169751Y305995D01*
X169795Y306083D01*
X169842Y306169D01*
X169893Y306252D01*
X169947Y306334D01*
X170004Y306413D01*
X170064Y306490D01*
X170127Y306564D01*
X170194Y306636D01*
X170263Y306705D01*
X170335Y306772D01*
X170409Y306835D01*
X170486Y306895D01*
X170565Y306952D01*
X170647Y307006D01*
X170731Y307057D01*
X170816Y307104D01*
X170904Y307148D01*
X170993Y307188D01*
X171083Y307224D01*
X171175Y307257D01*
X171269Y307286D01*
X171363Y307311D01*
X171459Y307333D01*
X171555Y307351D01*
X171651Y307364D01*
X171749Y307374D01*
X171846Y307380D01*
X171944Y307382D01*
X172042Y307380D01*
X172139Y307374D01*
X172237Y307364D01*
X172333Y307351D01*
X172429Y307333D01*
X172525Y307311D01*
X172619Y307286D01*
X172713Y307257D01*
X172805Y307224D01*
X172895Y307188D01*
X172984Y307148D01*
X173072Y307104D01*
X173158Y307057D01*
X173241Y307006D01*
X173323Y306952D01*
X173402Y306895D01*
X173479Y306835D01*
X173553Y306772D01*
X173625Y306705D01*
X173694Y306636D01*
X173761Y306564D01*
X173824Y306490D01*
X173884Y306413D01*
X173941Y306334D01*
X173995Y306252D01*
X174046Y306169D01*
X174093Y306083D01*
X174137Y305995D01*
X174177Y305906D01*
X174213Y305816D01*
X174246Y305724D01*
X174275Y305630D01*
X174300Y305536D01*
X174322Y305440D01*
X174340Y305344D01*
X174353Y305248D01*
X174363Y305150D01*
X174369Y305053D01*
X174371Y304955D01*
X174371Y303742D01*
X169517Y303742D01*
X179885Y307382D02*
X179885Y296460D01*
X179885Y307382D02*
X182919Y307382D01*
X183003Y307380D01*
X183087Y307374D01*
X183170Y307365D01*
X183253Y307351D01*
X183336Y307334D01*
X183417Y307313D01*
X183497Y307288D01*
X183576Y307259D01*
X183654Y307227D01*
X183730Y307191D01*
X183805Y307152D01*
X183877Y307109D01*
X183948Y307064D01*
X184016Y307014D01*
X184082Y306962D01*
X184145Y306907D01*
X184206Y306849D01*
X184264Y306788D01*
X184319Y306725D01*
X184371Y306659D01*
X184420Y306591D01*
X184466Y306520D01*
X184509Y306448D01*
X184548Y306373D01*
X184584Y306297D01*
X184616Y306219D01*
X184645Y306140D01*
X184670Y306060D01*
X184691Y305979D01*
X184708Y305896D01*
X184722Y305813D01*
X184731Y305730D01*
X184737Y305646D01*
X184739Y305562D01*
X184739Y301921D01*
X184737Y301837D01*
X184731Y301753D01*
X184722Y301670D01*
X184708Y301587D01*
X184691Y301504D01*
X184670Y301423D01*
X184645Y301343D01*
X184616Y301264D01*
X184584Y301186D01*
X184548Y301110D01*
X184509Y301035D01*
X184466Y300963D01*
X184420Y300892D01*
X184371Y300824D01*
X184319Y300758D01*
X184264Y300695D01*
X184206Y300634D01*
X184145Y300576D01*
X184082Y300521D01*
X184016Y300469D01*
X183948Y300420D01*
X183877Y300374D01*
X183805Y300331D01*
X183730Y300292D01*
X183654Y300256D01*
X183576Y300224D01*
X183497Y300195D01*
X183417Y300170D01*
X183336Y300149D01*
X183253Y300132D01*
X183170Y300118D01*
X183087Y300109D01*
X183003Y300103D01*
X182919Y300101D01*
X179885Y300101D01*
X190091Y300101D02*
X190091Y311023D01*
X190091Y307382D02*
X193125Y307382D01*
X193209Y307380D01*
X193293Y307374D01*
X193376Y307365D01*
X193459Y307351D01*
X193542Y307334D01*
X193623Y307313D01*
X193703Y307288D01*
X193782Y307259D01*
X193860Y307227D01*
X193936Y307191D01*
X194011Y307152D01*
X194083Y307109D01*
X194154Y307064D01*
X194222Y307014D01*
X194288Y306962D01*
X194351Y306907D01*
X194412Y306849D01*
X194470Y306788D01*
X194525Y306725D01*
X194577Y306659D01*
X194626Y306591D01*
X194672Y306520D01*
X194715Y306448D01*
X194754Y306373D01*
X194790Y306297D01*
X194822Y306219D01*
X194851Y306140D01*
X194876Y306060D01*
X194897Y305979D01*
X194914Y305896D01*
X194928Y305813D01*
X194937Y305730D01*
X194943Y305646D01*
X194945Y305562D01*
X194945Y300101D01*
X199997Y296460D02*
X201210Y296460D01*
X204851Y307382D01*
X199997Y307382D02*
X202424Y300101D01*
X209994Y300101D02*
X209994Y307382D01*
X213635Y307382D01*
X213635Y306169D01*
X217904Y307382D02*
X217904Y301921D01*
X217906Y301837D01*
X217912Y301753D01*
X217921Y301670D01*
X217935Y301587D01*
X217952Y301504D01*
X217973Y301423D01*
X217998Y301343D01*
X218027Y301264D01*
X218059Y301186D01*
X218095Y301110D01*
X218134Y301035D01*
X218177Y300963D01*
X218223Y300892D01*
X218272Y300824D01*
X218324Y300758D01*
X218379Y300695D01*
X218437Y300634D01*
X218498Y300576D01*
X218561Y300521D01*
X218627Y300469D01*
X218695Y300420D01*
X218766Y300374D01*
X218838Y300331D01*
X218913Y300292D01*
X218989Y300256D01*
X219067Y300224D01*
X219146Y300195D01*
X219226Y300170D01*
X219307Y300149D01*
X219390Y300132D01*
X219473Y300118D01*
X219556Y300109D01*
X219640Y300103D01*
X219724Y300101D01*
X222758Y300101D01*
X222758Y307382D01*
X229101Y304348D02*
X232135Y303135D01*
X229101Y304349D02*
X229029Y304379D01*
X228959Y304413D01*
X228891Y304451D01*
X228825Y304492D01*
X228760Y304536D01*
X228699Y304584D01*
X228639Y304634D01*
X228582Y304687D01*
X228528Y304743D01*
X228477Y304802D01*
X228428Y304863D01*
X228383Y304927D01*
X228341Y304992D01*
X228302Y305060D01*
X228266Y305129D01*
X228235Y305200D01*
X228206Y305273D01*
X228181Y305347D01*
X228160Y305422D01*
X228143Y305498D01*
X228130Y305575D01*
X228120Y305652D01*
X228114Y305730D01*
X228112Y305808D01*
X228114Y305886D01*
X228120Y305963D01*
X228129Y306041D01*
X228143Y306117D01*
X228160Y306194D01*
X228181Y306269D01*
X228205Y306343D01*
X228234Y306415D01*
X228265Y306486D01*
X228301Y306556D01*
X228339Y306624D01*
X228381Y306689D01*
X228427Y306753D01*
X228475Y306814D01*
X228526Y306873D01*
X228580Y306929D01*
X228637Y306982D01*
X228696Y307033D01*
X228758Y307080D01*
X228822Y307124D01*
X228889Y307165D01*
X228957Y307203D01*
X229027Y307238D01*
X229098Y307269D01*
X229171Y307296D01*
X229246Y307319D01*
X229321Y307339D01*
X229397Y307355D01*
X229474Y307368D01*
X229552Y307376D01*
X229630Y307381D01*
X229707Y307382D01*
X229707Y307383D02*
X229873Y307379D01*
X230039Y307371D01*
X230204Y307358D01*
X230369Y307342D01*
X230533Y307322D01*
X230697Y307298D01*
X230860Y307269D01*
X231023Y307237D01*
X231185Y307201D01*
X231345Y307162D01*
X231505Y307118D01*
X231664Y307070D01*
X231822Y307019D01*
X231978Y306964D01*
X232133Y306905D01*
X232286Y306843D01*
X232438Y306776D01*
X232134Y303134D02*
X232206Y303104D01*
X232276Y303070D01*
X232344Y303032D01*
X232410Y302991D01*
X232475Y302947D01*
X232536Y302899D01*
X232596Y302849D01*
X232653Y302796D01*
X232707Y302740D01*
X232758Y302681D01*
X232807Y302620D01*
X232852Y302556D01*
X232894Y302491D01*
X232933Y302423D01*
X232969Y302354D01*
X233000Y302283D01*
X233029Y302210D01*
X233054Y302136D01*
X233075Y302061D01*
X233092Y301985D01*
X233105Y301908D01*
X233115Y301831D01*
X233121Y301753D01*
X233123Y301675D01*
X233121Y301597D01*
X233115Y301520D01*
X233106Y301442D01*
X233092Y301366D01*
X233075Y301289D01*
X233054Y301214D01*
X233030Y301140D01*
X233001Y301068D01*
X232970Y300997D01*
X232934Y300927D01*
X232896Y300859D01*
X232854Y300794D01*
X232808Y300730D01*
X232760Y300669D01*
X232709Y300610D01*
X232655Y300554D01*
X232598Y300501D01*
X232539Y300450D01*
X232477Y300403D01*
X232413Y300359D01*
X232346Y300318D01*
X232278Y300280D01*
X232208Y300245D01*
X232137Y300214D01*
X232064Y300187D01*
X231989Y300164D01*
X231914Y300144D01*
X231838Y300128D01*
X231761Y300115D01*
X231683Y300107D01*
X231605Y300102D01*
X231528Y300101D01*
X231285Y300107D01*
X231042Y300120D01*
X230799Y300137D01*
X230557Y300161D01*
X230315Y300190D01*
X230074Y300225D01*
X229834Y300266D01*
X229595Y300312D01*
X229357Y300364D01*
X229121Y300422D01*
X228886Y300485D01*
X228652Y300554D01*
X228421Y300628D01*
X228191Y300708D01*
X243741Y311023D02*
X247382Y300101D01*
X251022Y311023D01*
X255778Y308596D02*
X258812Y311023D01*
X258812Y300101D01*
X255778Y300101D02*
X261846Y300101D01*
D11*
X207137Y320548D03*
D12*
X207137Y320802D03*
D13*
X207137Y321056D03*
D14*
X207137Y321310D03*
D15*
X207137Y321564D03*
D16*
X207137Y321818D03*
D17*
X207137Y322072D03*
D18*
X207137Y322326D03*
D19*
X207010Y322580D03*
D20*
X207137Y322834D03*
D21*
X207137Y323088D03*
D22*
X182880Y323342D03*
D23*
X213233Y323342D03*
D24*
X237617Y323342D03*
D25*
X174371Y323596D03*
X189611Y323596D03*
D26*
X202438Y323596D03*
D27*
X213106Y323596D03*
D28*
X224155Y323596D03*
D29*
X238379Y323596D03*
D30*
X174244Y323850D03*
D31*
X189357Y323850D03*
D32*
X202819Y323850D03*
D33*
X213233Y323850D03*
X223901Y323850D03*
D32*
X238887Y323850D03*
D25*
X174117Y324104D03*
D34*
X189103Y324104D03*
D35*
X202946Y324104D03*
X213106Y324104D03*
D36*
X223647Y324104D03*
D33*
X239395Y324104D03*
D25*
X174117Y324358D03*
D37*
X188976Y324358D03*
D38*
X203200Y324358D03*
D36*
X212979Y324358D03*
D39*
X223393Y324358D03*
D36*
X239649Y324358D03*
D25*
X174117Y324612D03*
D37*
X188976Y324612D03*
D39*
X203327Y324612D03*
D36*
X212979Y324612D03*
D39*
X223139Y324612D03*
X239903Y324612D03*
D40*
X173990Y324866D03*
D37*
X188976Y324866D03*
D40*
X203454Y324866D03*
D38*
X212852Y324866D03*
D40*
X222758Y324866D03*
D25*
X240157Y324866D03*
D40*
X173990Y325120D03*
D37*
X188976Y325120D03*
D25*
X203581Y325120D03*
D38*
X212852Y325120D03*
D25*
X222631Y325120D03*
D40*
X240284Y325120D03*
X173990Y325374D03*
D37*
X188976Y325374D03*
D30*
X203708Y325374D03*
D39*
X212725Y325374D03*
D25*
X222377Y325374D03*
D40*
X240284Y325374D03*
X173990Y325628D03*
D37*
X188976Y325628D03*
D41*
X203835Y325628D03*
D40*
X212598Y325628D03*
D30*
X221996Y325628D03*
D40*
X240284Y325628D03*
X173990Y325882D03*
D37*
X188976Y325882D03*
D42*
X203962Y325882D03*
D40*
X212598Y325882D03*
D41*
X221869Y325882D03*
D40*
X240284Y325882D03*
X173990Y326136D03*
D37*
X188976Y326136D03*
D42*
X203962Y326136D03*
D25*
X212471Y326136D03*
D30*
X221742Y326136D03*
D40*
X240284Y326136D03*
X173990Y326390D03*
D37*
X188976Y326390D03*
D31*
X204089Y326390D03*
D25*
X212471Y326390D03*
D41*
X221615Y326390D03*
D40*
X240284Y326390D03*
X173990Y326644D03*
D34*
X188849Y326644D03*
D43*
X195326Y326644D03*
D31*
X204089Y326644D03*
D30*
X212344Y326644D03*
D41*
X221361Y326644D03*
D44*
X231267Y326644D03*
D40*
X240284Y326644D03*
X173990Y326898D03*
D45*
X185420Y326898D03*
D25*
X195199Y326898D03*
D43*
X204216Y326898D03*
D41*
X212217Y326898D03*
X221107Y326898D03*
D42*
X231140Y326898D03*
D40*
X240284Y326898D03*
X173990Y327152D03*
D45*
X185420Y327152D03*
D38*
X195072Y327152D03*
D43*
X204216Y327152D03*
D41*
X212217Y327152D03*
X221107Y327152D03*
D40*
X231140Y327152D03*
X240284Y327152D03*
X173990Y327406D03*
D45*
X185420Y327406D03*
D33*
X194945Y327406D03*
D43*
X204216Y327406D03*
D42*
X212090Y327406D03*
D41*
X220853Y327406D03*
D38*
X230886Y327406D03*
D40*
X240284Y327406D03*
X173990Y327660D03*
D45*
X185420Y327660D03*
D46*
X194818Y327660D03*
D43*
X204216Y327660D03*
D42*
X212090Y327660D03*
D41*
X220599Y327660D03*
D36*
X230759Y327660D03*
D40*
X240284Y327660D03*
X173990Y327914D03*
D47*
X189484Y327914D03*
D43*
X204216Y327914D03*
D31*
X211963Y327914D03*
D41*
X220599Y327914D03*
D35*
X230632Y327914D03*
D40*
X240284Y327914D03*
X173990Y328168D03*
D47*
X189484Y328168D03*
D48*
X204343Y328168D03*
D31*
X211963Y328168D03*
D41*
X220345Y328168D03*
D33*
X230505Y328168D03*
D40*
X240284Y328168D03*
X173990Y328422D03*
D47*
X189484Y328422D03*
D48*
X204343Y328422D03*
D43*
X211836Y328422D03*
D41*
X220345Y328422D03*
D27*
X230378Y328422D03*
D40*
X240284Y328422D03*
X173990Y328676D03*
D47*
X189484Y328676D03*
D48*
X204343Y328676D03*
X211709Y328676D03*
D41*
X220091Y328676D03*
D32*
X230251Y328676D03*
D40*
X240284Y328676D03*
X173990Y328930D03*
D47*
X189484Y328930D03*
D43*
X204216Y328930D03*
D48*
X211709Y328930D03*
D30*
X219964Y328930D03*
D32*
X230251Y328930D03*
D40*
X240284Y328930D03*
X173990Y329184D03*
D49*
X189357Y329184D03*
D43*
X204216Y329184D03*
D50*
X211582Y329184D03*
D30*
X219964Y329184D03*
D46*
X230124Y329184D03*
D40*
X240284Y329184D03*
X173990Y329438D03*
D49*
X189357Y329438D03*
D43*
X204216Y329438D03*
D34*
X211455Y329438D03*
D30*
X219710Y329438D03*
D46*
X230124Y329438D03*
D40*
X240284Y329438D03*
X173990Y329692D03*
D51*
X189230Y329692D03*
D43*
X204216Y329692D03*
D34*
X211455Y329692D03*
D25*
X219583Y329692D03*
D28*
X229997Y329692D03*
D40*
X240284Y329692D03*
X173990Y329946D03*
D52*
X189103Y329946D03*
D43*
X204216Y329946D03*
D37*
X211328Y329946D03*
D25*
X219583Y329946D03*
D28*
X229997Y329946D03*
D40*
X240284Y329946D03*
X173990Y330200D03*
D53*
X188849Y330200D03*
D31*
X204089Y330200D03*
D54*
X211201Y330200D03*
D40*
X219456Y330200D03*
D28*
X229997Y330200D03*
D40*
X240284Y330200D03*
X173990Y330454D03*
D55*
X188722Y330454D03*
D31*
X204089Y330454D03*
D44*
X210947Y330454D03*
D40*
X219202Y330454D03*
D26*
X229870Y330454D03*
D40*
X240284Y330454D03*
X173990Y330708D03*
D56*
X188468Y330708D03*
D42*
X203962Y330708D03*
D57*
X210439Y330708D03*
D39*
X219075Y330708D03*
D41*
X228219Y330708D03*
D40*
X240284Y330708D03*
X173990Y330962D03*
D58*
X188214Y330962D03*
D42*
X203962Y330962D03*
D38*
X218948Y330962D03*
D42*
X228092Y330962D03*
D40*
X240284Y330962D03*
X173990Y331216D03*
D24*
X190881Y331216D03*
D41*
X203835Y331216D03*
D38*
X218948Y331216D03*
D42*
X228092Y331216D03*
D40*
X240284Y331216D03*
X173990Y331470D03*
D29*
X190627Y331470D03*
D30*
X203708Y331470D03*
D36*
X218821Y331470D03*
D42*
X228092Y331470D03*
D40*
X240284Y331470D03*
X173990Y331724D03*
D26*
X190500Y331724D03*
D30*
X203708Y331724D03*
D33*
X218567Y331724D03*
D41*
X227965Y331724D03*
D40*
X240284Y331724D03*
X173990Y331978D03*
D46*
X190246Y331978D03*
D25*
X203581Y331978D03*
D33*
X218567Y331978D03*
D41*
X227965Y331978D03*
D40*
X240284Y331978D03*
X173990Y332232D03*
D27*
X189992Y332232D03*
D40*
X203454Y332232D03*
D38*
X218948Y332232D03*
D41*
X227965Y332232D03*
D40*
X240284Y332232D03*
X173990Y332486D03*
D33*
X189865Y332486D03*
D39*
X203327Y332486D03*
X219075Y332486D03*
D41*
X227965Y332486D03*
D40*
X240284Y332486D03*
X173990Y332740D03*
D36*
X189611Y332740D03*
X203073Y332740D03*
D25*
X219329Y332740D03*
D41*
X227965Y332740D03*
D40*
X240284Y332740D03*
X173990Y332994D03*
D38*
X189484Y332994D03*
D35*
X202946Y332994D03*
D30*
X219456Y332994D03*
D41*
X227965Y332994D03*
D40*
X240284Y332994D03*
X173990Y333248D03*
D39*
X189357Y333248D03*
D33*
X202819Y333248D03*
D41*
X219583Y333248D03*
X227965Y333248D03*
D40*
X240284Y333248D03*
X173990Y333502D03*
D25*
X189103Y333502D03*
D32*
X202565Y333502D03*
D42*
X219710Y333502D03*
D41*
X227965Y333502D03*
D40*
X240284Y333502D03*
X173990Y333756D03*
D25*
X189103Y333756D03*
D28*
X202311Y333756D03*
D31*
X219837Y333756D03*
D42*
X228092Y333756D03*
D39*
X240157Y333756D03*
D40*
X173990Y334010D03*
D30*
X188976Y334010D03*
D26*
X202184Y334010D03*
D37*
X211328Y334010D03*
D31*
X219837Y334010D03*
D59*
X234442Y334010D03*
D40*
X173990Y334264D03*
D30*
X188722Y334264D03*
D60*
X201930Y334264D03*
D48*
X211709Y334264D03*
D43*
X219964Y334264D03*
D59*
X234442Y334264D03*
D40*
X173990Y334518D03*
D61*
X180594Y334518D03*
D30*
X188468Y334518D03*
D24*
X201549Y334518D03*
D43*
X211836Y334518D03*
X219964Y334518D03*
D59*
X234442Y334518D03*
D40*
X173990Y334772D03*
D62*
X185674Y334772D03*
D63*
X201295Y334772D03*
D42*
X212090Y334772D03*
D43*
X220218Y334772D03*
D59*
X234442Y334772D03*
D40*
X173990Y335026D03*
D64*
X185547Y335026D03*
X201041Y335026D03*
D42*
X212090Y335026D03*
D43*
X220218Y335026D03*
D53*
X234569Y335026D03*
D40*
X173990Y335280D03*
D64*
X185547Y335280D03*
D65*
X200787Y335280D03*
D41*
X212217Y335280D03*
D43*
X220218Y335280D03*
D53*
X234569Y335280D03*
D40*
X173990Y335534D03*
D45*
X185420Y335534D03*
D66*
X200660Y335534D03*
D41*
X212217Y335534D03*
D48*
X220345Y335534D03*
D53*
X234569Y335534D03*
D40*
X173990Y335788D03*
D45*
X185420Y335788D03*
D67*
X200406Y335788D03*
D41*
X212217Y335788D03*
D43*
X220472Y335788D03*
D55*
X234696Y335788D03*
D40*
X173990Y336042D03*
D45*
X185420Y336042D03*
D68*
X200279Y336042D03*
D30*
X212344Y336042D03*
D43*
X220472Y336042D03*
D55*
X234696Y336042D03*
D40*
X173990Y336296D03*
D45*
X185420Y336296D03*
D68*
X200279Y336296D03*
D30*
X212344Y336296D03*
D43*
X220472Y336296D03*
D69*
X234823Y336296D03*
D40*
X173990Y336550D03*
D45*
X185420Y336550D03*
D70*
X200152Y336550D03*
D30*
X212344Y336550D03*
D31*
X220599Y336550D03*
D56*
X234950Y336550D03*
D40*
X173990Y336804D03*
D45*
X185420Y336804D03*
D70*
X200152Y336804D03*
D30*
X212344Y336804D03*
D31*
X220599Y336804D03*
D56*
X234950Y336804D03*
D40*
X173990Y337058D03*
D45*
X185420Y337058D03*
D70*
X200152Y337058D03*
D30*
X212344Y337058D03*
D42*
X220726Y337058D03*
D71*
X235077Y337058D03*
D40*
X173990Y337312D03*
D45*
X185420Y337312D03*
D70*
X200152Y337312D03*
D41*
X212217Y337312D03*
D42*
X220726Y337312D03*
D58*
X235204Y337312D03*
D40*
X173990Y337566D03*
D45*
X185420Y337566D03*
D70*
X200152Y337566D03*
D41*
X212217Y337566D03*
X220853Y337566D03*
D72*
X235331Y337566D03*
D40*
X173990Y337820D03*
D45*
X185420Y337820D03*
D68*
X200279Y337820D03*
D41*
X212217Y337820D03*
X220853Y337820D03*
D60*
X232156Y337820D03*
D35*
X239776Y337820D03*
D40*
X173990Y338074D03*
D45*
X185420Y338074D03*
D68*
X200279Y338074D03*
D42*
X212090Y338074D03*
D30*
X220980Y338074D03*
D46*
X232156Y338074D03*
D38*
X240030Y338074D03*
D40*
X173990Y338328D03*
D45*
X185420Y338328D03*
D38*
X197612Y338328D03*
D41*
X203835Y338328D03*
D31*
X211963Y338328D03*
D25*
X221107Y338328D03*
D35*
X232156Y338328D03*
D38*
X240030Y338328D03*
D40*
X173990Y338582D03*
D45*
X185420Y338582D03*
D25*
X197485Y338582D03*
D42*
X203962Y338582D03*
D48*
X211709Y338582D03*
D40*
X220980Y338582D03*
D25*
X232029Y338582D03*
D38*
X240030Y338582D03*
D40*
X173990Y338836D03*
D43*
X188722Y338836D03*
X197612Y338836D03*
D42*
X203962Y338836D03*
D73*
X211074Y338836D03*
D39*
X221107Y338836D03*
D37*
X231902Y338836D03*
D38*
X240030Y338836D03*
D40*
X173990Y339090D03*
D48*
X188849Y339090D03*
D42*
X203962Y339090D03*
D36*
X221107Y339090D03*
D38*
X240030Y339090D03*
D40*
X173990Y339344D03*
D43*
X188976Y339344D03*
D42*
X203962Y339344D03*
D35*
X221234Y339344D03*
D38*
X240030Y339344D03*
D40*
X173990Y339598D03*
D43*
X188976Y339598D03*
D42*
X203962Y339598D03*
D27*
X221234Y339598D03*
D38*
X240030Y339598D03*
D40*
X173990Y339852D03*
D31*
X189103Y339852D03*
D42*
X203962Y339852D03*
D32*
X221361Y339852D03*
D38*
X240030Y339852D03*
D40*
X173990Y340106D03*
D42*
X189230Y340106D03*
X203962Y340106D03*
D28*
X221361Y340106D03*
D38*
X240030Y340106D03*
D40*
X173990Y340360D03*
D41*
X189357Y340360D03*
D42*
X203962Y340360D03*
D29*
X221361Y340360D03*
D38*
X240030Y340360D03*
D40*
X173990Y340614D03*
D30*
X189484Y340614D03*
D42*
X203962Y340614D03*
D74*
X221488Y340614D03*
D39*
X239903Y340614D03*
D25*
X174117Y340868D03*
X189611Y340868D03*
D42*
X203962Y340868D03*
D75*
X221488Y340868D03*
D39*
X239903Y340868D03*
D25*
X174117Y341122D03*
D39*
X189865Y341122D03*
D42*
X203962Y341122D03*
D62*
X221488Y341122D03*
D39*
X239903Y341122D03*
D25*
X174117Y341376D03*
D38*
X189992Y341376D03*
D42*
X203962Y341376D03*
D67*
X221488Y341376D03*
D38*
X239776Y341376D03*
D30*
X174244Y341630D03*
D35*
X190246Y341630D03*
D41*
X203835Y341630D03*
D76*
X221488Y341630D03*
D36*
X239395Y341630D03*
D25*
X174371Y341884D03*
D46*
X190500Y341884D03*
D40*
X203708Y341884D03*
D77*
X221361Y341884D03*
D27*
X239014Y341884D03*
D78*
X183642Y342138D03*
D79*
X214757Y342138D03*
D26*
X238252Y342138D03*
D21*
X207137Y342392D03*
D20*
X207137Y342646D03*
D19*
X207010Y342900D03*
D18*
X207137Y343154D03*
D17*
X207137Y343408D03*
D16*
X207137Y343662D03*
D15*
X207137Y343916D03*
D14*
X207137Y344170D03*
D13*
X207137Y344424D03*
D12*
X207137Y344678D03*
D11*
X207137Y344932D03*
D80*
X112903Y286639D03*
D81*
X112912Y279540D03*
X112912Y274540D03*
X112912Y269540D03*
X121412Y269540D03*
X121412Y274540D03*
X121412Y279540D03*
D82*
X258629Y87630D03*
X230829Y87630D03*
X258629Y134366D03*
X230829Y134366D03*
X258629Y110998D03*
X230829Y110998D03*
X258629Y40894D03*
X230829Y40894D03*
X258629Y64262D03*
X230829Y64262D03*
D83*
X77358Y222250D03*
X63358Y222250D03*
X77358Y246126D03*
X63358Y246126D03*
X77358Y234188D03*
X63358Y234188D03*
D84*
X159512Y229504D03*
X159512Y215504D03*
X147066Y229504D03*
X147066Y215504D03*
D83*
X133462Y267970D03*
X147462Y267970D03*
D85*
X259278Y230946D03*
X259278Y240446D03*
X259278Y249946D03*
X234278Y249946D03*
X234278Y240446D03*
X234278Y230946D03*
D86*
X74278Y76200D03*
D87*
X63118Y76200D03*
D86*
X74278Y47244D03*
D87*
X63118Y47244D03*
D88*
X21748Y15824D03*
X21748Y41224D03*
X21748Y66624D03*
X21748Y92024D03*
X21748Y117424D03*
D89*
X104808Y214942D03*
X109808Y214942D03*
X114808Y214942D03*
X119808Y214942D03*
X124808Y214942D03*
D90*
X134308Y224442D03*
X134308Y229442D03*
X134308Y234442D03*
X134308Y239442D03*
X134308Y244442D03*
D89*
X124808Y253942D03*
X119808Y253942D03*
X114808Y253942D03*
X109808Y253942D03*
X104808Y253942D03*
D90*
X95308Y244442D03*
X95308Y239442D03*
X95308Y234442D03*
X95308Y229442D03*
X95308Y224442D03*
D91*
X114808Y234442D03*
D88*
X22256Y159430D03*
X22256Y184830D03*
X22256Y210230D03*
X22256Y235630D03*
X22256Y261030D03*
D92*
X245086Y193548D03*
X261390Y193548D03*
X69826Y258318D03*
X86130Y258318D03*
X71906Y97028D03*
X55602Y97028D03*
X217908Y274574D03*
X234212Y274574D03*
X226544Y210058D03*
X242848Y210058D03*
D93*
X93472Y89686D03*
X93472Y73382D03*
D94*
X125624Y43434D03*
X207624Y43434D03*
D83*
X71770Y200660D03*
X57770Y200660D03*
D84*
X156210Y101996D03*
X156210Y87996D03*
D95*
X112962Y287262D02*
X112962Y294882D01*
X112962Y353302D01*
D96*
X46160Y294882D02*
X43620Y294882D01*
D95*
X101532Y353302D02*
X112962Y353302D01*
X101532Y353302D02*
X101532Y315202D01*
X90102Y315202D01*
X90102Y353302D01*
X78672Y353302D01*
X78672Y315202D01*
X67242Y315202D01*
X67242Y353302D01*
X55812Y353302D01*
X55812Y315202D01*
X44382Y315202D01*
X44382Y353302D01*
X10092Y353302D01*
X43620Y294882D02*
X112962Y294882D01*
D83*
X202580Y114554D03*
X188580Y114554D03*
X188580Y158750D03*
X202580Y158750D03*
X181976Y269240D03*
X195976Y269240D03*
X195976Y227076D03*
X181976Y227076D03*
D84*
X189738Y171562D03*
X189738Y185562D03*
X202184Y171562D03*
X202184Y185562D03*
D97*
X202580Y128152D03*
X202580Y145152D03*
X188580Y145152D03*
X188580Y128152D03*
X196020Y240061D03*
X196020Y257061D03*
X182020Y257061D03*
X182020Y240061D03*
D98*
X155918Y120082D03*
X155918Y128082D03*
X155918Y136082D03*
X155918Y144082D03*
X155918Y152082D03*
X155918Y160082D03*
X155918Y168082D03*
X155918Y176082D03*
D99*
X141538Y190462D03*
X133538Y190462D03*
X125538Y190462D03*
X117538Y190462D03*
X109538Y190462D03*
X101538Y190462D03*
X93538Y190462D03*
X85538Y190462D03*
D98*
X71158Y176082D03*
X71158Y168082D03*
X71158Y160082D03*
X71158Y152082D03*
X71158Y144082D03*
X71158Y136082D03*
X71158Y128082D03*
X71158Y120082D03*
D99*
X85538Y105702D03*
X93538Y105702D03*
X101538Y105702D03*
X109538Y105702D03*
X117538Y105702D03*
X125538Y105702D03*
X133538Y105702D03*
X141538Y105702D03*
D92*
X125452Y84582D03*
X141756Y84582D03*
D83*
X71770Y187960D03*
X57770Y187960D03*
D84*
X169926Y101996D03*
X169926Y87996D03*
D100*
X223728Y180442D03*
X223728Y170942D03*
X223728Y161442D03*
X249728Y161442D03*
X249728Y180442D03*
D101*
X247524Y273812D03*
X263016Y273812D03*
D102*
X213614Y193930D03*
X213614Y209422D03*
D103*
X43434Y294894D03*
D104*
X223728Y170942D03*
D105*
X188468Y114554D03*
D106*
X10160Y280416D03*
X20320Y280416D03*
X30480Y280416D03*
X40640Y280416D03*
X45720Y271526D03*
X55880Y271526D03*
X50800Y280416D03*
X60960Y280416D03*
X71120Y280416D03*
X66040Y271526D03*
X151130Y279146D03*
X76200Y271526D03*
X86360Y274066D03*
X81280Y280416D03*
X91440Y280416D03*
X101600Y280416D03*
X96520Y271526D03*
X105410Y272796D03*
X130810Y280416D03*
X140970Y279146D03*
X158750Y272796D03*
X102870Y265176D03*
X158750Y262636D03*
X151130Y256286D03*
X142240Y256286D03*
X104648Y244602D03*
X104648Y234442D03*
X104648Y224282D03*
X114808Y234442D03*
X114808Y244602D03*
X114808Y224282D03*
X124968Y244602D03*
X124968Y234442D03*
X124968Y224282D03*
X135890Y251206D03*
D104*
X202392Y185420D03*
D107*
X246888Y87884D03*
X246888Y77216D03*
X246888Y98552D03*
X246888Y108458D03*
X246888Y118618D03*
X258699Y111252D03*
D108*
X213614Y194056D03*
D105*
X159512Y229504D03*
D109*
X77358Y222250D03*
D105*
X22256Y261030D03*
D103*
X114502Y206671D03*
D109*
X125476Y190654D03*
D107*
X258699Y87376D03*
M02*
