M48
;GenerationSoftware,Autodesk,EAGLE,9.6.2*%
;CreationDate,2020-11-21T21:39:38Z*%
FMAT,2
ICI,OFF
METRIC,TZ,000.000
T2C0.350
T1C1.016
%
G90
M71
T1
X16510Y29718
X6350Y1778
X3810Y1778
X10135Y32334
X12675Y32334
X5105Y32283
X1270Y1778
X1270Y4318
X1270Y6858
X1270Y9398
X1270Y11938
X1270Y14478
X1270Y17018
X1270Y19558
X1270Y22098
X1270Y24638
X1270Y27178
X1270Y29718
X1270Y32258
X16510Y32258
X7645Y32283
X16510Y27178
X16510Y24638
X16510Y22098
X16510Y19558
X16510Y17018
X16510Y14478
X16510Y11938
X16510Y9398
X16510Y6858
X16510Y4318
X16510Y1778
X13970Y1778
X11430Y1778
X8890Y1778
T2
X5334Y10287
X8128Y19558
X11557Y21082
X9398Y16002
X13716Y11938
X12954Y28067
M30