G04 EAGLE Gerber RS-274X export*
G75*
%MOMM*%
%FSLAX34Y34*%
%LPD*%
%IN*%
%IPPOS*%
%AMOC8*
5,1,8,0,0,1.08239X$1,22.5*%
G01*
%ADD10C,0.254000*%


D10*
X-2540Y17780D02*
X-2588Y16336D01*
X-2510Y14894D01*
X-2306Y13464D01*
X-1979Y12057D01*
X-1530Y10684D01*
X-963Y9355D01*
X-283Y8081D01*
X506Y6870D01*
X1398Y5734D01*
X2385Y4679D01*
X3460Y3714D01*
X4615Y2847D01*
X5842Y2084D01*
X7130Y1430D01*
X8470Y891D01*
X9852Y471D01*
X11266Y174D01*
X12700Y0D01*
X165100Y0D01*
X166322Y-58D01*
X167545Y-8D01*
X168759Y147D01*
X169955Y408D01*
X171123Y772D01*
X172255Y1237D01*
X173343Y1798D01*
X174377Y2452D01*
X175350Y3194D01*
X176255Y4017D01*
X177085Y4917D01*
X177833Y5885D01*
X178494Y6915D01*
X179063Y7999D01*
X179535Y9128D01*
X179907Y10293D01*
X180176Y11487D01*
X180340Y12700D01*
X180340Y332740D01*
X180292Y333847D01*
X180147Y334945D01*
X179907Y336027D01*
X179574Y337084D01*
X179150Y338107D01*
X178639Y339090D01*
X178043Y340024D01*
X177369Y340903D01*
X176620Y341720D01*
X175803Y342469D01*
X174924Y343143D01*
X173990Y343739D01*
X173007Y344250D01*
X171984Y344674D01*
X170927Y345007D01*
X169845Y345247D01*
X168747Y345392D01*
X167640Y345440D01*
X10160Y345440D01*
X9159Y345507D01*
X8156Y345487D01*
X7158Y345379D01*
X6174Y345185D01*
X5210Y344906D01*
X4275Y344544D01*
X3374Y344101D01*
X2516Y343582D01*
X1706Y342990D01*
X950Y342330D01*
X256Y341606D01*
X-374Y340825D01*
X-932Y339992D01*
X-1416Y339113D01*
X-1822Y338195D01*
X-2146Y337246D01*
X-2386Y336271D01*
X-2540Y335280D01*
X-2540Y17780D01*
M02*
