G04 EAGLE Gerber RS-274X export*
G75*
%MOMM*%
%FSLAX34Y34*%
%LPD*%
%INSolderpaste Top*%
%IPPOS*%
%AMOC8*
5,1,8,0,0,1.08239X$1,22.5*%
G01*
%ADD10R,0.600000X1.475000*%
%ADD11R,1.475000X0.600000*%
%ADD12R,0.800000X1.200000*%
%ADD13R,0.620000X1.470000*%
%ADD14R,1.470000X0.620000*%
%ADD15R,0.620000X1.820000*%


D10*
X116156Y228108D03*
X108156Y228108D03*
X100156Y228108D03*
X92156Y228108D03*
X84156Y228108D03*
X76156Y228108D03*
X68156Y228108D03*
X60156Y228108D03*
D11*
X45776Y213728D03*
X45776Y205728D03*
X45776Y197728D03*
X45776Y189728D03*
X45776Y181728D03*
X45776Y173728D03*
X45776Y165728D03*
X45776Y157728D03*
D10*
X60156Y143348D03*
X68156Y143348D03*
X76156Y143348D03*
X84156Y143348D03*
X92156Y143348D03*
X100156Y143348D03*
X108156Y143348D03*
X116156Y143348D03*
D11*
X130536Y157728D03*
X130536Y165728D03*
X130536Y173728D03*
X130536Y181728D03*
X130536Y189728D03*
X130536Y197728D03*
X130536Y205728D03*
X130536Y213728D03*
D12*
X64862Y287510D03*
X46862Y287510D03*
D13*
X119964Y249664D03*
X99964Y249664D03*
D14*
X43180Y127160D03*
X43180Y147160D03*
D15*
X120140Y271780D03*
X88140Y271780D03*
X37340Y110490D03*
X69340Y110490D03*
M02*
