G04 EAGLE Gerber RS-274X export*
G75*
%MOMM*%
%FSLAX34Y34*%
%LPD*%
%INSoldermask Top*%
%IPPOS*%
%AMOC8*
5,1,8,0,0,1.08239X$1,22.5*%
G01*
%ADD10R,0.727000X1.602000*%
%ADD11R,1.602000X0.727000*%
%ADD12C,2.006600*%
%ADD13R,0.927000X1.327000*%
%ADD14R,0.747000X1.597000*%
%ADD15R,1.597000X0.747000*%
%ADD16R,0.747000X1.947000*%
%ADD17C,0.652000*%


D10*
X116156Y228108D03*
X108156Y228108D03*
X100156Y228108D03*
X92156Y228108D03*
X84156Y228108D03*
X76156Y228108D03*
X68156Y228108D03*
X60156Y228108D03*
D11*
X45776Y213728D03*
X45776Y205728D03*
X45776Y197728D03*
X45776Y189728D03*
X45776Y181728D03*
X45776Y173728D03*
X45776Y165728D03*
X45776Y157728D03*
D10*
X60156Y143348D03*
X68156Y143348D03*
X76156Y143348D03*
X84156Y143348D03*
X92156Y143348D03*
X100156Y143348D03*
X108156Y143348D03*
X116156Y143348D03*
D11*
X130536Y157728D03*
X130536Y165728D03*
X130536Y173728D03*
X130536Y181728D03*
X130536Y189728D03*
X130536Y197728D03*
X130536Y205728D03*
X130536Y213728D03*
D12*
X12700Y17780D03*
X12700Y43180D03*
X12700Y68580D03*
X12700Y93980D03*
X12700Y119380D03*
X12700Y144780D03*
X12700Y170180D03*
X12700Y195580D03*
X12700Y220980D03*
X12700Y246380D03*
X12700Y271780D03*
X12700Y297180D03*
X12700Y322580D03*
X165100Y322580D03*
X165100Y297180D03*
X165100Y271780D03*
X165100Y246380D03*
X165100Y220980D03*
X165100Y195580D03*
X165100Y170180D03*
X165100Y144780D03*
X165100Y119380D03*
X165100Y93980D03*
X165100Y68580D03*
X165100Y43180D03*
X165100Y17780D03*
X139700Y17780D03*
X114300Y17780D03*
X88900Y17780D03*
X63500Y17780D03*
X38100Y17780D03*
D13*
X64862Y287510D03*
X46862Y287510D03*
D14*
X119964Y249664D03*
X99964Y249664D03*
D15*
X43180Y127160D03*
X43180Y147160D03*
D16*
X120140Y271780D03*
X88140Y271780D03*
X37340Y110490D03*
X69340Y110490D03*
D12*
X101346Y323342D03*
X126746Y323342D03*
X51054Y322834D03*
X76454Y322834D03*
D17*
X129540Y280670D03*
X53340Y102870D03*
X81280Y195580D03*
X115570Y210820D03*
X93980Y160020D03*
X137160Y119380D03*
M02*
