<svg id="Layer_1" data-name="Layer 1" xmlns="http://www.w3.org/2000/svg" xmlns:xlink="http://www.w3.org/1999/xlink" viewBox="0 0 1023.66601 621.62652"><defs><style>.cls-1,.cls-3,.cls-4,.cls-6,.cls-7{fill:none;}.cls-2{clip-path:url(#clip-path);}.cls-3,.cls-4,.cls-6,.cls-7{stroke:#000;stroke-linecap:round;}.cls-3,.cls-4,.cls-6{stroke-linejoin:round;}.cls-3{stroke-width:6.41123px;}.cls-4{stroke-width:6.41121px;}.cls-5{clip-path:url(#clip-path-2);}.cls-6{stroke-width:3.20562px;}.cls-7{stroke-miterlimit:10;stroke-width:0;}</style><clipPath id="clip-path" transform="translate(-53.27295 -81.52588)"><polyline class="cls-1" points="160.667 740.551 1114.338 740.551 1114.338 197.466 160.667 197.466 160.667 740.551"/></clipPath><clipPath id="clip-path-2" transform="translate(-53.27295 -81.52588)"><polyline class="cls-1" points="0 842 1190.52 842 1190.52 0.14 0 0.14 0 842"/></clipPath></defs><title>stm32f0-qfp32-devboard-dim</title><g class="cls-2"><path class="cls-3" d="M910.11333,567.1808a4.40775,4.40775,0,1,0,4.40768,4.40768,4.40762,4.40762,0,0,0-4.40768-4.40768" transform="translate(-53.27295 -81.52588)"/><path class="cls-3" d="M1016.70009,360.41852a12.95605,12.95605,0,1,0,12.95619,12.95605,12.95586,12.95586,0,0,0-12.95619-12.95605" transform="translate(-53.27295 -81.52588)"/><path class="cls-3" d="M1017.76859,487.30751a12.95605,12.95605,0,1,0,12.95619,12.95605,12.95586,12.95586,0,0,0-12.95619-12.95605" transform="translate(-53.27295 -81.52588)"/><path class="cls-3" d="M246.55079,391.94049a12.956,12.956,0,1,0,12.95605,12.95592,12.956,12.956,0,0,0-12.95605-12.95592" transform="translate(-53.27295 -81.52588)"/><path class="cls-3" d="M246.55079,520.1651a12.956,12.956,0,1,0,12.95605,12.956,12.956,12.956,0,0,0-12.95605-12.956" transform="translate(-53.27295 -81.52588)"/><path class="cls-3" d="M246.55079,648.38971a12.95605,12.95605,0,1,0,12.95605,12.95605,12.95607,12.95607,0,0,0-12.95605-12.95605" transform="translate(-53.27295 -81.52588)"/><path class="cls-3" d="M374.7754,648.38971a12.95605,12.95605,0,1,0,12.95592,12.95605,12.95595,12.95595,0,0,0-12.95592-12.95605" transform="translate(-53.27295 -81.52588)"/><path class="cls-3" d="M503,648.38971a12.95605,12.95605,0,1,0,12.95619,12.95605A12.95595,12.95595,0,0,0,503,648.38971" transform="translate(-53.27295 -81.52588)"/><path class="cls-3" d="M631.22462,648.38971a12.95605,12.95605,0,1,0,12.95619,12.95605,12.95612,12.95612,0,0,0-12.95619-12.95605" transform="translate(-53.27295 -81.52588)"/><path class="cls-3" d="M759.4495,648.38971a12.95605,12.95605,0,1,0,12.95592,12.95605,12.95618,12.95618,0,0,0-12.95592-12.95605" transform="translate(-53.27295 -81.52588)"/><path class="cls-3" d="M887.67411,648.38971A12.95605,12.95605,0,1,0,900.63,661.34576a12.95618,12.95618,0,0,0-12.95592-12.95605" transform="translate(-53.27295 -81.52588)"/><path class="cls-3" d="M1015.89872,648.38971a12.95605,12.95605,0,1,0,12.95592,12.95605,12.95595,12.95595,0,0,0-12.95592-12.95605" transform="translate(-53.27295 -81.52588)"/><path class="cls-3" d="M951.78628,263.71575a12.95605,12.95605,0,1,0,12.95619,12.95605,12.956,12.956,0,0,0-12.95619-12.95605" transform="translate(-53.27295 -81.52588)"/><path class="cls-3" d="M823.56167,263.71575a12.95605,12.95605,0,1,0,12.95619,12.95605,12.95586,12.95586,0,0,0-12.95619-12.95605" transform="translate(-53.27295 -81.52588)"/><path class="cls-3" d="M695.33706,263.71575A12.95605,12.95605,0,1,0,708.293,276.6718a12.95586,12.95586,0,0,0-12.95592-12.95605" transform="translate(-53.27295 -81.52588)"/><path class="cls-3" d="M567.11245,263.71575a12.95605,12.95605,0,1,0,12.95592,12.95605,12.95609,12.95609,0,0,0-12.95592-12.95605" transform="translate(-53.27295 -81.52588)"/><path class="cls-3" d="M438.88784,263.71575a12.95605,12.95605,0,1,0,12.95592,12.95605,12.95609,12.95609,0,0,0-12.95592-12.95605" transform="translate(-53.27295 -81.52588)"/><path class="cls-3" d="M310.663,263.71575a12.95605,12.95605,0,1,0,12.95619,12.95605A12.956,12.956,0,0,0,310.663,263.71575" transform="translate(-53.27295 -81.52588)"/><path class="cls-3" d="M246.55079,263.71575a12.95605,12.95605,0,1,0,12.95605,12.95605,12.956,12.956,0,0,0-12.95605-12.95605" transform="translate(-53.27295 -81.52588)"/><path class="cls-3" d="M374.7754,263.71575a12.95605,12.95605,0,1,0,12.95592,12.95605,12.95586,12.95586,0,0,0-12.95592-12.95605" transform="translate(-53.27295 -81.52588)"/><path class="cls-3" d="M503,263.71575A12.95605,12.95605,0,1,0,515.9562,276.6718,12.95586,12.95586,0,0,0,503,263.71575" transform="translate(-53.27295 -81.52588)"/><path class="cls-3" d="M631.22462,263.71575a12.95605,12.95605,0,1,0,12.95619,12.95605,12.956,12.956,0,0,0-12.95619-12.95605" transform="translate(-53.27295 -81.52588)"/><path class="cls-3" d="M759.4495,263.71575a12.95605,12.95605,0,1,0,12.95592,12.95605,12.95609,12.95609,0,0,0-12.95592-12.95605" transform="translate(-53.27295 -81.52588)"/><path class="cls-3" d="M887.67411,263.71575A12.95605,12.95605,0,1,0,900.63,276.6718a12.95609,12.95609,0,0,0-12.95592-12.95605" transform="translate(-53.27295 -81.52588)"/><path class="cls-3" d="M1015.89872,263.71575a12.95605,12.95605,0,1,0,12.95592,12.95605,12.95586,12.95586,0,0,0-12.95592-12.95605" transform="translate(-53.27295 -81.52588)"/><path class="cls-3" d="M951.78628,648.38971a12.95605,12.95605,0,1,0,12.95619,12.95605,12.95612,12.95612,0,0,0-12.95619-12.95605" transform="translate(-53.27295 -81.52588)"/><path class="cls-3" d="M823.56167,648.38971a12.95605,12.95605,0,1,0,12.95619,12.95605,12.95595,12.95595,0,0,0-12.95619-12.95605" transform="translate(-53.27295 -81.52588)"/><path class="cls-3" d="M695.33706,648.38971A12.95605,12.95605,0,1,0,708.293,661.34576a12.95595,12.95595,0,0,0-12.95592-12.95605" transform="translate(-53.27295 -81.52588)"/><path class="cls-3" d="M567.11245,648.38971a12.95605,12.95605,0,1,0,12.95592,12.95605,12.95618,12.95618,0,0,0-12.95592-12.95605" transform="translate(-53.27295 -81.52588)"/><path class="cls-3" d="M438.88784,648.38971a12.95605,12.95605,0,1,0,12.95592,12.95605,12.95618,12.95618,0,0,0-12.95592-12.95605" transform="translate(-53.27295 -81.52588)"/><path class="cls-3" d="M310.663,648.38971a12.95605,12.95605,0,1,0,12.95619,12.95605A12.95612,12.95612,0,0,0,310.663,648.38971" transform="translate(-53.27295 -81.52588)"/><path class="cls-3" d="M246.55079,584.27741a12.95605,12.95605,0,1,0,12.95605,12.95605,12.956,12.956,0,0,0-12.95605-12.95605" transform="translate(-53.27295 -81.52588)"/><path class="cls-3" d="M246.55079,456.0528a12.95605,12.95605,0,1,0,12.95605,12.95605,12.956,12.956,0,0,0-12.95605-12.95605" transform="translate(-53.27295 -81.52588)"/><path class="cls-3" d="M246.55079,327.82805a12.95605,12.95605,0,1,0,12.95605,12.95605,12.95607,12.95607,0,0,0-12.95605-12.95605" transform="translate(-53.27295 -81.52588)"/><path class="cls-3" d="M1017.76859,551.41981a12.95605,12.95605,0,1,0,12.95619,12.95605,12.95586,12.95586,0,0,0-12.95619-12.95605" transform="translate(-53.27295 -81.52588)"/><path class="cls-3" d="M1016.70009,424.53082a12.95605,12.95605,0,1,0,12.95619,12.95605,12.956,12.956,0,0,0-12.95619-12.95605" transform="translate(-53.27295 -81.52588)"/><path class="cls-4" d="M460.77325,374.8788a4.40774,4.40774,0,0,0-.00054,8.74553" transform="translate(-53.27295 -81.52588)"/><path class="cls-3" d="M503,586.41453a4.40768,4.40768,0,1,0,4.40768,4.40768A4.40762,4.40762,0,0,0,503,586.41453" transform="translate(-53.27295 -81.52588)"/><path class="cls-3" d="M246.55229,238.19414a41.80654,41.80654,0,0,0-44.89067,38.476" transform="translate(-53.27295 -81.52588)"/><line class="cls-3" x1="994.5483" y1="156.81215" x2="193.14428" y2="156.81215"/><path class="cls-3" d="M1073.72519,267.73293a28.98417,28.98417,0,0,0-25.77568-29.48485" transform="translate(-53.27295 -81.52588)"/><polyline class="cls-3" points="1020.193 586.365 1020.193 188.868 1020.46 186.197"/><path class="cls-3" d="M1044.34836,699.82437a32.18993,32.18993,0,0,0,29.385-32.06737" transform="translate(-53.27295 -81.52588)"/><polyline class="cls-3" points="180.322 618.421 988.137 618.421 991.076 618.154"/><path class="cls-3" d="M201.53852,664.42937a35.39555,35.39555,0,0,0,32.18951,35.3719" transform="translate(-53.27295 -81.52588)"/><polyline class="cls-3" points="148.266 195.279 148.266 579.953 147.998 582.892"/><polyline class="cls-3" points="528.666 297.325 705.509 297.325 705.509 473.901"/><line class="cls-3" x1="705.50861" y1="297.325" x2="699.89874" y2="302.66761"/><polyline class="cls-3" points="534.275 302.668 528.666 297.325 528.666 473.901 705.509 473.901 699.899 468.558"/><polyline class="cls-3" points="699.899 302.668 699.632 303.202 699.097 303.469 698.563 304.27 697.762 304.805 697.227 305.606 696.426 306.407 695.624 307.209"/><polyline class="cls-3" points="699.899 468.558 699.632 468.291 699.097 467.757 698.563 467.223 697.762 466.421 697.227 465.62 696.426 464.818 695.624 464.017"/><line class="cls-3" x1="528.66556" y1="473.90106" x2="534.27516" y2="468.55832"/><polyline class="cls-3" points="534.275 302.668 534.542 303.202 535.077 303.469 535.611 304.27 536.145 304.805 536.947 305.606 537.748 306.407 538.549 307.209"/><path class="cls-3" d="M725.256,532.98759a11.08612,11.08612,0,1,0-11.086-11.08618A11.08632,11.08632,0,0,0,725.256,532.98759" transform="translate(-53.27295 -81.52588)"/><polyline class="cls-3" points="538.549 464.017 537.748 464.818 536.947 465.62 536.145 466.421 535.611 467.223 535.077 467.757 534.542 468.291 534.275 468.558"/><polyline class="cls-3" points="720.468 451.729 722.071 451.729 724.208 451.729 730.619 451.729 730.619 461.079 724.208 461.079 722.071 461.079 720.468 461.079 710.851 461.079 708.981 461.079 706.844 461.079 705.509 461.079"/><polyline class="cls-3" points="720.468 451.729 710.851 451.729 708.981 451.729 706.844 451.729 705.509 451.729 705.509 461.079"/><line class="cls-3" x1="509.69895" y1="461.07858" x2="503.55483" y2="461.07858"/><polyline class="cls-3" points="509.699 451.729 503.555 451.729 503.555 461.079"/><polyline class="cls-3" points="528.666 461.079 527.33 461.079 525.193 461.079 523.323 461.079 513.706 461.079 512.103 461.079 509.699 461.079"/><polyline class="cls-3" points="509.699 451.729 512.103 451.729 513.706 451.729 523.323 451.729 525.193 451.729 527.33 451.729 528.666 451.729 528.666 461.079"/><polyline class="cls-3" points="720.468 431.427 722.071 431.427 724.208 431.427 730.619 431.427 730.619 440.776 724.208 440.776 722.071 440.776 720.468 440.776 710.851 440.776 708.981 440.776 706.844 440.776 705.509 440.776"/><polyline class="cls-3" points="720.468 431.427 710.851 431.427 708.981 431.427 706.844 431.427 705.509 431.427 705.509 440.776"/><line class="cls-3" x1="509.69895" y1="440.77635" x2="503.55483" y2="440.77635"/><polyline class="cls-3" points="509.699 431.427 503.555 431.427 503.555 440.776"/><polyline class="cls-3" points="528.666 440.776 527.33 440.776 525.193 440.776 523.323 440.776 513.706 440.776 512.103 440.776 509.699 440.776"/><polyline class="cls-3" points="509.699 431.427 512.103 431.427 513.706 431.427 523.323 431.427 525.193 431.427 527.33 431.427 528.666 431.427 528.666 440.776"/><polyline class="cls-3" points="720.468 411.124 722.071 411.124 724.208 411.124 730.619 411.124 730.619 420.741 724.208 420.741 722.071 420.741 720.468 420.741 710.851 420.741 708.981 420.741 706.844 420.741 705.509 420.741"/><polyline class="cls-3" points="720.468 411.124 710.851 411.124 708.981 411.124 706.844 411.124 705.509 411.124 705.509 420.741"/><line class="cls-3" x1="509.69895" y1="420.74124" x2="503.55483" y2="420.74124"/><polyline class="cls-3" points="509.699 411.124 503.555 411.124 503.555 420.741"/><polyline class="cls-3" points="528.666 420.741 527.33 420.741 525.193 420.741 523.323 420.741 513.706 420.741 512.103 420.741 509.699 420.741"/><polyline class="cls-3" points="509.699 411.124 512.103 411.124 513.706 411.124 523.323 411.124 525.193 411.124 527.33 411.124 528.666 411.124 528.666 420.741"/><polyline class="cls-3" points="720.468 391.089 722.071 391.089 724.208 391.089 730.619 391.089 730.619 400.439 724.208 400.439 722.071 400.439 720.468 400.439 710.851 400.439 708.981 400.439 706.844 400.439 705.509 400.439"/><polyline class="cls-3" points="720.468 391.089 710.851 391.089 708.981 391.089 706.844 391.089 705.509 391.089 705.509 400.439"/><line class="cls-3" x1="509.69895" y1="400.43902" x2="503.55483" y2="400.43902"/><polyline class="cls-3" points="509.699 391.089 503.555 391.089 503.555 400.439"/><polyline class="cls-3" points="528.666 400.439 527.33 400.439 525.193 400.439 523.323 400.439 513.706 400.439 512.103 400.439 509.699 400.439"/><polyline class="cls-3" points="509.699 391.089 512.103 391.089 513.706 391.089 523.323 391.089 525.193 391.089 527.33 391.089 528.666 391.089 528.666 400.439"/><polyline class="cls-3" points="720.468 370.787 722.071 370.787 724.208 370.787 730.619 370.787 730.619 380.404 724.208 380.404 722.071 380.404 720.468 380.404 710.851 380.404 708.981 380.404 706.844 380.404 705.509 380.404"/><polyline class="cls-3" points="720.468 370.787 710.851 370.787 708.981 370.787 706.844 370.787 705.509 370.787 705.509 380.404"/><line class="cls-3" x1="509.69895" y1="380.40391" x2="503.55483" y2="380.40391"/><polyline class="cls-3" points="509.699 370.787 503.555 370.787 503.555 380.404"/><polyline class="cls-3" points="528.666 380.404 527.33 380.404 525.193 380.404 523.323 380.404 513.706 380.404 512.103 380.404 509.699 380.404"/><polyline class="cls-3" points="509.699 370.787 512.103 370.787 513.706 370.787 523.323 370.787 525.193 370.787 527.33 370.787 528.666 370.787 528.666 380.404"/><polyline class="cls-3" points="720.468 350.752 722.071 350.752 724.208 350.752 730.619 350.752 730.619 360.102 724.208 360.102 722.071 360.102 720.468 360.102 710.851 360.102 708.981 360.102 706.844 360.102 705.509 360.102"/><polyline class="cls-3" points="720.468 350.752 710.851 350.752 708.981 350.752 706.844 350.752 705.509 350.752 705.509 360.102"/><line class="cls-3" x1="509.69895" y1="360.10155" x2="503.55483" y2="360.10155"/><polyline class="cls-3" points="509.699 350.752 503.555 350.752 503.555 360.102"/><polyline class="cls-3" points="528.666 360.102 527.33 360.102 525.193 360.102 523.323 360.102 513.706 360.102 512.103 360.102 509.699 360.102"/><polyline class="cls-3" points="509.699 350.752 512.103 350.752 513.706 350.752 523.323 350.752 525.193 350.752 527.33 350.752 528.666 350.752 528.666 360.102"/><polyline class="cls-3" points="720.468 330.45 722.071 330.45 724.208 330.45 730.619 330.45 730.619 339.799 724.208 339.799 722.071 339.799 720.468 339.799 710.851 339.799 708.981 339.799 706.844 339.799 705.509 339.799"/><polyline class="cls-3" points="720.468 330.45 710.851 330.45 708.981 330.45 706.844 330.45 705.509 330.45 705.509 339.799"/><line class="cls-3" x1="509.69895" y1="339.79932" x2="503.55483" y2="339.79932"/><polyline class="cls-3" points="509.699 330.45 503.555 330.45 503.555 339.799"/><polyline class="cls-3" points="528.666 339.799 527.33 339.799 525.193 339.799 523.323 339.799 513.706 339.799 512.103 339.799 509.699 339.799"/><polyline class="cls-3" points="509.699 330.45 512.103 330.45 513.706 330.45 523.323 330.45 525.193 330.45 527.33 330.45 528.666 330.45 528.666 339.799"/><polyline class="cls-3" points="720.468 310.147 722.071 310.147 724.208 310.147 730.619 310.147 730.619 319.764 724.208 319.764 722.071 319.764 720.468 319.764 710.851 319.764 708.981 319.764 706.844 319.764 705.509 319.764"/><polyline class="cls-3" points="720.468 310.147 710.851 310.147 708.981 310.147 706.844 310.147 705.509 310.147 705.509 319.764"/><line class="cls-3" x1="509.69895" y1="319.76422" x2="503.55483" y2="319.76422"/><polyline class="cls-3" points="509.699 310.147 503.555 310.147 503.555 319.764"/><polyline class="cls-3" points="528.666 319.764 527.33 319.764 525.193 319.764 523.323 319.764 513.706 319.764 512.103 319.764 509.699 319.764"/><polyline class="cls-3" points="509.699 310.147 512.103 310.147 513.706 310.147 523.323 310.147 525.193 310.147 527.33 310.147 528.666 310.147 528.666 319.764"/><line class="cls-3" x1="692.419" y1="492.86754" x2="692.419" y2="499.27878"/><polyline class="cls-3" points="692.419 473.901 692.419 475.504 692.419 477.641 692.419 479.244 692.419 489.128 692.419 490.731 692.419 492.868"/><polyline class="cls-3" points="692.419 499.279 683.069 499.279 683.069 492.868 683.069 490.731 683.069 489.128 683.069 479.244 683.069 477.641 683.069 475.504 683.069 473.901 692.419 473.901"/><polyline class="cls-3" points="683.069 278.358 683.069 271.947 692.419 271.947 692.419 278.358 692.419 280.763 692.419 282.365 692.419 291.982 692.419 293.585 692.419 295.989 692.419 297.325"/><polyline class="cls-3" points="683.069 278.358 683.069 280.763 683.069 282.365 683.069 291.982 683.069 293.585 683.069 295.989 683.069 297.325 692.419 297.325"/><line class="cls-3" x1="672.38389" y1="492.86754" x2="672.38389" y2="499.27878"/><polyline class="cls-3" points="672.384 473.901 672.384 475.504 672.384 477.641 672.384 479.244 672.384 489.128 672.384 490.731 672.384 492.868"/><polyline class="cls-3" points="672.384 499.279 662.767 499.279 662.767 492.868 662.767 490.731 662.767 489.128 662.767 479.244 662.767 477.641 662.767 475.504 662.767 473.901 672.384 473.901"/><polyline class="cls-3" points="662.767 278.358 662.767 271.947 672.384 271.947 672.384 278.358 672.384 280.763 672.384 282.365 672.384 291.982 672.384 293.585 672.384 295.989 672.384 297.325"/><polyline class="cls-3" points="662.767 278.358 662.767 280.763 662.767 282.365 662.767 291.982 662.767 293.585 662.767 295.989 662.767 297.325 672.384 297.325"/><line class="cls-3" x1="652.08167" y1="492.86754" x2="652.08167" y2="499.27878"/><polyline class="cls-3" points="652.082 473.901 652.082 475.504 652.082 477.641 652.082 479.244 652.082 489.128 652.082 490.731 652.082 492.868"/><polyline class="cls-3" points="652.082 499.279 642.732 499.279 642.732 492.868 642.732 490.731 642.732 489.128 642.732 479.244 642.732 477.641 642.732 475.504 642.732 473.901 652.082 473.901"/><polyline class="cls-3" points="642.732 278.358 642.732 271.947 652.082 271.947 652.082 278.358 652.082 280.763 652.082 282.365 652.082 291.982 652.082 293.585 652.082 295.989 652.082 297.325"/><polyline class="cls-3" points="642.732 278.358 642.732 280.763 642.732 282.365 642.732 291.982 642.732 293.585 642.732 295.989 642.732 297.325 652.082 297.325"/><line class="cls-3" x1="631.77944" y1="492.86754" x2="631.77944" y2="499.27878"/><polyline class="cls-3" points="631.779 473.901 631.779 475.504 631.779 477.641 631.779 479.244 631.779 489.128 631.779 490.731 631.779 492.868"/><polyline class="cls-3" points="631.779 499.279 622.43 499.279 622.43 492.868 622.43 490.731 622.43 489.128 622.43 479.244 622.43 477.641 622.43 475.504 622.43 473.901 631.779 473.901"/><polyline class="cls-3" points="622.43 278.358 622.43 271.947 631.779 271.947 631.779 278.358 631.779 280.763 631.779 282.365 631.779 291.982 631.779 293.585 631.779 295.989 631.779 297.325"/><polyline class="cls-3" points="622.43 278.358 622.43 280.763 622.43 282.365 622.43 291.982 622.43 293.585 622.43 295.989 622.43 297.325 631.779 297.325"/><line class="cls-3" x1="611.74433" y1="492.86754" x2="611.74433" y2="499.27878"/><polyline class="cls-3" points="611.744 473.901 611.744 475.504 611.744 477.641 611.744 479.244 611.744 489.128 611.744 490.731 611.744 492.868"/><polyline class="cls-3" points="611.744 499.279 602.128 499.279 602.128 492.868 602.128 490.731 602.128 489.128 602.128 479.244 602.128 477.641 602.128 475.504 602.128 473.901 611.744 473.901"/><polyline class="cls-3" points="602.128 278.358 602.128 271.947 611.744 271.947 611.744 278.358 611.744 280.763 611.744 282.365 611.744 291.982 611.744 293.585 611.744 295.989 611.744 297.325"/><polyline class="cls-3" points="602.128 278.358 602.128 280.763 602.128 282.365 602.128 291.982 602.128 293.585 602.128 295.989 602.128 297.325 611.744 297.325"/><line class="cls-3" x1="591.44211" y1="492.86754" x2="591.44211" y2="499.27878"/><polyline class="cls-3" points="591.442 473.901 591.442 475.504 591.442 477.641 591.442 479.244 591.442 489.128 591.442 490.731 591.442 492.868"/><polyline class="cls-3" points="591.442 499.279 582.092 499.279 582.092 492.868 582.092 490.731 582.092 489.128 582.092 479.244 582.092 477.641 582.092 475.504 582.092 473.901 591.442 473.901"/><polyline class="cls-3" points="582.092 278.358 582.092 271.947 591.442 271.947 591.442 278.358 591.442 280.763 591.442 282.365 591.442 291.982 591.442 293.585 591.442 295.989 591.442 297.325"/><polyline class="cls-3" points="582.092 278.358 582.092 280.763 582.092 282.365 582.092 291.982 582.092 293.585 582.092 295.989 582.092 297.325 591.442 297.325"/><line class="cls-3" x1="571.407" y1="492.86754" x2="571.407" y2="499.27878"/><polyline class="cls-3" points="571.407 473.901 571.407 475.504 571.407 477.641 571.407 479.244 571.407 489.128 571.407 490.731 571.407 492.868"/><polyline class="cls-3" points="571.407 499.279 561.79 499.279 561.79 492.868 561.79 490.731 561.79 489.128 561.79 479.244 561.79 477.641 561.79 475.504 561.79 473.901 571.407 473.901"/><polyline class="cls-3" points="561.79 278.358 561.79 271.947 571.407 271.947 571.407 278.358 571.407 280.763 571.407 282.365 571.407 291.982 571.407 293.585 571.407 295.989 571.407 297.325"/><polyline class="cls-3" points="561.79 278.358 561.79 280.763 561.79 282.365 561.79 291.982 561.79 293.585 561.79 295.989 561.79 297.325 571.407 297.325"/><line class="cls-3" x1="551.10477" y1="492.86754" x2="551.10477" y2="499.27878"/><polyline class="cls-3" points="551.105 473.901 551.105 475.504 551.105 477.641 551.105 479.244 551.105 489.128 551.105 490.731 551.105 492.868"/><polyline class="cls-3" points="551.105 499.279 541.755 499.279 541.755 492.868 541.755 490.731 541.755 489.128 541.755 479.244 541.755 477.641 541.755 475.504 541.755 473.901 551.105 473.901"/><polyline class="cls-3" points="541.755 278.358 541.755 271.947 551.105 271.947 551.105 278.358 551.105 280.763 551.105 282.365 551.105 291.982 551.105 293.585 551.105 295.989 551.105 297.325"/><polyline class="cls-3" points="541.755 278.358 541.755 280.763 541.755 282.365 541.755 291.982 541.755 293.585 541.755 295.989 541.755 297.325 551.105 297.325"/><line class="cls-3" x1="791.79314" y1="465.88694" x2="765.07967" y2="465.88694"/><path class="cls-3" d="M845.19952,547.41282a2.53765,2.53765,0,0,0,2.53781-2.53781" transform="translate(-53.27295 -81.52588)"/><path class="cls-3" d="M815.94851,544.875a2.53741,2.53741,0,0,0,2.53754,2.53781" transform="translate(-53.27295 -81.52588)"/><line class="cls-3" x1="794.19726" y1="463.48269" x2="794.19726" y2="460.81145"/><line class="cls-3" x1="791.79314" y1="460.81145" x2="765.07967" y2="460.81145"/><line class="cls-3" x1="762.67556" y1="463.48269" x2="762.67556" y2="460.81145"/><polyline class="cls-3" points="794.197 460.811 793.93 460.811 792.862 460.811 791.793 460.811"/><polyline class="cls-3" points="762.676 460.811 762.943 460.811 764.011 460.811 765.08 460.811"/><polyline class="cls-3" points="794.197 418.07 794.197 420.474 793.93 420.474 792.862 420.474 791.793 420.474 765.08 420.474 764.011 420.474 762.943 420.474 762.676 420.474 762.676 418.07"/><path class="cls-3" d="M847.73733,499.46219a2.53782,2.53782,0,0,0-2.53781-2.53781" transform="translate(-53.27295 -81.52588)"/><line class="cls-3" x1="791.79314" y1="415.3985" x2="765.07967" y2="415.3985"/><path class="cls-3" d="M818.48605,496.92438a2.53758,2.53758,0,0,0-2.53754,2.53781" transform="translate(-53.27295 -81.52588)"/><line class="cls-3" x1="793.93013" y1="460.81145" x2="793.93013" y2="420.47412"/><line class="cls-3" x1="762.94268" y1="460.81145" x2="762.94268" y2="420.47412"/><line class="cls-3" x1="850.02859" y1="466.42119" x2="818.77374" y2="466.42119"/><path class="cls-3" d="M903.435,547.94707a4.675,4.675,0,0,0,4.67481-4.67481" transform="translate(-53.27295 -81.52588)"/><path class="cls-3" d="M867.50531,543.27226a4.67479,4.67479,0,0,0,4.6748,4.67481" transform="translate(-53.27295 -81.52588)"/><line class="cls-3" x1="854.56969" y1="461.87995" x2="854.56969" y2="461.3457"/><line class="cls-3" x1="850.02859" y1="461.3457" x2="818.77374" y2="461.3457"/><line class="cls-3" x1="814.23236" y1="461.87995" x2="814.23236" y2="461.3457"/><polyline class="cls-3" points="854.57 461.346 853.768 461.346 852.166 461.346 850.029 461.346"/><polyline class="cls-3" points="814.232 461.346 814.767 461.346 816.37 461.346 818.774 461.346"/><polyline class="cls-3" points="854.57 390.288 854.57 390.555 853.768 390.555 852.166 390.555 850.029 390.555 818.774 390.555 816.37 390.555 814.767 390.555 814.232 390.555 814.232 390.288"/><path class="cls-3" d="M908.10977,471.68008a4.67505,4.67505,0,0,0-4.67481-4.6748" transform="translate(-53.27295 -81.52588)"/><line class="cls-3" x1="850.02859" y1="385.74653" x2="818.77374" y2="385.74653"/><path class="cls-3" d="M872.18011,467.00528a4.67479,4.67479,0,0,0-4.6748,4.6748" transform="translate(-53.27295 -81.52588)"/><line class="cls-3" x1="854.03545" y1="461.3457" x2="854.03545" y2="390.55503"/><line class="cls-3" x1="814.49949" y1="461.3457" x2="814.49949" y2="390.55503"/><line class="cls-3" x1="469.09449" y1="285.30388" x2="469.09449" y2="258.85754"/><path class="cls-3" d="M522.63457,366.6962a2.53756,2.53756,0,0,0,2.53781,2.53781" transform="translate(-53.27295 -81.52588)"/><path class="cls-3" d="M525.17238,337.712a2.53765,2.53765,0,0,0-2.53781,2.53781" transform="translate(-53.27295 -81.52588)"/><line class="cls-3" x1="471.76573" y1="287.97526" x2="474.16985" y2="287.97526"/><line class="cls-3" x1="474.16985" y1="285.30388" x2="474.16985" y2="258.85754"/><line class="cls-3" x1="471.76573" y1="256.45329" x2="474.16985" y2="256.45329"/><polyline class="cls-3" points="474.17 287.975 474.17 287.441 474.17 286.64 474.17 285.304"/><polyline class="cls-3" points="474.17 256.453 474.17 256.721 474.17 257.522 474.17 258.858"/><polyline class="cls-3" points="517.179 287.975 514.507 287.975 514.507 287.441 514.507 286.64 514.507 285.304 514.507 258.858 514.507 257.522 514.507 256.721 514.507 256.453 517.179 256.453"/><path class="cls-3" d="M570.58506,369.234a2.53792,2.53792,0,0,0,2.53782-2.53781" transform="translate(-53.27295 -81.52588)"/><line class="cls-3" x1="519.5828" y1="285.30388" x2="519.5828" y2="258.85754"/><path class="cls-3" d="M573.12288,340.24985a2.538,2.538,0,0,0-2.53782-2.53781" transform="translate(-53.27295 -81.52588)"/><line class="cls-3" x1="474.16985" y1="287.70813" x2="514.50718" y2="287.70813"/><line class="cls-3" x1="474.16985" y1="256.72055" x2="514.50718" y2="256.72055"/><line class="cls-3" x1="411.3933" y1="257.25479" x2="442.64815" y2="257.25479"/><path class="cls-3" d="M464.79967,338.51355a4.67487,4.67487,0,0,0-4.6748,4.6748" transform="translate(-53.27295 -81.52588)"/><path class="cls-3" d="M500.72932,343.18835a4.675,4.675,0,0,0-4.6748-4.6748" transform="translate(-53.27295 -81.52588)"/><line class="cls-3" x1="406.85192" y1="261.79603" x2="406.85192" y2="262.33028"/><line class="cls-3" x1="411.3933" y1="262.33028" x2="442.64815" y2="262.33028"/><line class="cls-3" x1="447.18925" y1="261.79603" x2="447.18925" y2="262.33028"/><polyline class="cls-3" points="406.852 262.33 407.386 262.33 409.256 262.33 411.393 262.33"/><polyline class="cls-3" points="447.189 262.33 446.655 262.33 445.052 262.33 442.648 262.33"/><polyline class="cls-3" points="406.852 333.655 406.852 333.121 407.386 333.121 409.256 333.121 411.393 333.121 442.648 333.121 445.052 333.121 446.655 333.121 447.189 333.121 447.189 333.655"/><path class="cls-3" d="M460.12487,415.04766a4.67479,4.67479,0,0,0,4.6748,4.6748" transform="translate(-53.27295 -81.52588)"/><line class="cls-3" x1="411.3933" y1="338.19658" x2="442.64815" y2="338.19658"/><path class="cls-3" d="M496.05452,419.72246a4.675,4.675,0,0,0,4.6748-4.6748" transform="translate(-53.27295 -81.52588)"/><line class="cls-3" x1="407.38617" y1="262.33028" x2="407.38617" y2="333.12095"/><line class="cls-3" x1="446.92213" y1="262.33028" x2="446.92213" y2="333.12095"/><line class="cls-3" x1="889.83167" y1="329.91533" x2="858.3097" y2="329.91533"/><polyline class="cls-3" points="889.832 329.915 889.832 321.1 858.31 321.1 858.31 329.915"/><line class="cls-3" x1="889.83167" y1="287.17389" x2="858.3097" y2="287.17389"/><polyline class="cls-3" points="889.832 287.174 889.832 278.358 858.31 278.358 858.31 287.174"/><line class="cls-3" x1="889.56455" y1="321.09997" x2="889.56455" y2="287.17389"/><line class="cls-3" x1="858.57682" y1="321.09997" x2="858.57682" y2="287.17389"/></g><g class="cls-5"><line class="cls-6" x1="148.26557" y1="169.90176" x2="148.26557" y2="39.00564"/><line class="cls-6" x1="1020.19327" y1="163.49052" x2="1020.19327" y2="39.00564"/><line class="cls-6" x1="192.6099" y1="64.11637" x2="976.11593" y2="64.11637"/><polygon points="192.61 56.904 192.61 71.596 148.266 64.116 192.61 56.904"/><polygon class="cls-7" points="192.61 56.904 192.61 71.596 148.266 64.116 192.61 56.904"/><polygon points="976.116 56.904 976.116 71.596 1020.193 64.116 976.116 56.904"/><polygon class="cls-7" points="976.116 56.904 976.116 71.596 1020.193 64.116 976.116 56.904"/></g><g class="cls-5"><path d="M563.16113,114.2168l5.42383-.72315q.9331,4.60986,3.17871,6.64356a7.84909,7.84909,0,0,0,5.46875,2.03369,8.765,8.765,0,0,0,6.46289-2.65137,8.94824,8.94824,0,0,0,2.63574-6.56836,8.32194,8.32194,0,0,0-2.44042-6.16162,8.43969,8.43969,0,0,0-6.207-2.42529,15.58392,15.58392,0,0,0-3.82617.60254l.60254-4.76026a8.17336,8.17336,0,0,0,.874.06006,11.167,11.167,0,0,0,6.23633-1.80762,6.18638,6.18638,0,0,0,2.77246-5.57421,6.59427,6.59427,0,0,0-2.01855-4.94092,7.17381,7.17381,0,0,0-5.21289-1.9585,7.38536,7.38536,0,0,0-5.27246,1.98828,9.9808,9.9808,0,0,0-2.71192,5.96582l-5.42285-.96435a13.93494,13.93494,0,0,1,4.51953-8.45117,13.06341,13.06341,0,0,1,8.76758-2.998,14.445,14.445,0,0,1,6.6582,1.55176,11.22653,11.22653,0,0,1,4.65528,4.2334,10.87986,10.87986,0,0,1,1.6123,5.69433,9.32309,9.32309,0,0,1-1.53711,5.2124,10.4905,10.4905,0,0,1-4.5498,3.73633,10.25291,10.25291,0,0,1,6.08691,3.751,11.417,11.417,0,0,1,2.16895,7.12549,13.0397,13.0397,0,0,1-4.21778,9.80761,14.839,14.839,0,0,1-10.666,4.022,13.87711,13.87711,0,0,1-9.65723-3.46485A13.40236,13.40236,0,0,1,563.16113,114.2168Z" transform="translate(-53.27295 -81.52588)"/><path d="M614.834,125.877V115.30127H595.6709v-4.97119l20.15723-28.62354h4.42871v28.62354h5.96582v4.97119h-5.96582V125.877Zm0-15.54687v-19.916l-13.83007,19.916Z" transform="translate(-53.27295 -81.52588)"/><path d="M634.81055,125.877V119.7002h6.17578V125.877Z" transform="translate(-53.27295 -81.52588)"/><path d="M648.91016,114.30713l5.69531-.48193a10.20816,10.20816,0,0,0,2.9375,6.252,7.975,7.975,0,0,0,5.55859,2.09375,8.657,8.657,0,0,0,6.62891-2.95264,11.12769,11.12769,0,0,0,2.71191-7.83349,10.06,10.06,0,0,0-2.60644-7.32178,9.09059,9.09059,0,0,0-6.82422-2.68164,9.45289,9.45289,0,0,0-4.73047,1.19043,9.18012,9.18012,0,0,0-3.31445,3.08789l-5.0918-.6626,4.27832-22.6875h21.96484V87.4917h-17.626l-2.38086,11.87109a14.377,14.377,0,0,1,8.34668-2.772,13.22115,13.22115,0,0,1,9.76172,4.00732,14.00509,14.00509,0,0,1,3.97656,10.3042,16.08875,16.08875,0,0,1-3.49414,10.36475,14.00124,14.00124,0,0,1-11.60059,5.36328,14.2862,14.2862,0,0,1-9.83691-3.37451A13.16793,13.16793,0,0,1,648.91016,114.30713Z" transform="translate(-53.27295 -81.52588)"/><path d="M700.61328,125.877V115.30127H681.4502v-4.97119l20.15722-28.62354h4.42871v28.62354H712.002v4.97119h-5.96582V125.877Zm0-15.54687v-19.916l-13.83008,19.916Z" transform="translate(-53.27295 -81.52588)"/></g><line class="cls-6" x1="168.03355" y1="156.81215" x2="38.74031" y2="156.81215"/><line class="cls-6" x1="155.21107" y1="618.42091" x2="38.74031" y2="618.42091"/><line class="cls-6" x1="64.11817" y1="200.88935" x2="64.11817" y2="574.07658"/><polygon points="56.638 200.889 71.331 200.889 64.118 156.812 56.638 200.889"/><polygon class="cls-7" points="56.638 200.889 71.331 200.889 64.118 156.812 56.638 200.889"/><polygon points="56.638 574.077 71.331 574.077 64.118 618.421 56.638 574.077"/><polygon class="cls-7" points="56.638 574.077 71.331 574.077 64.118 618.421 56.638 574.077"/><path d="M97.624,525.22559v5.42382H63.06543a28.0038,28.0038,0,0,1,3.73584,5.13672,36.41969,36.41969,0,0,1,2.80225,5.71H64.36084a32.74553,32.74553,0,0,0-5.18213-7.9541A20.3916,20.3916,0,0,0,53.273,528.7207v-3.49511Z" transform="translate(-53.27295 -81.52588)"/><path d="M73.6709,502.99023a10.20658,10.20658,0,0,1-3.52539,5.002,9.21534,9.21534,0,0,1-5.4834,1.627,10.7258,10.7258,0,0,1-8.105-3.46484,14.58264,14.58264,0,0,1,.07519-18.53028,10.87646,10.87646,0,0,1,8.18018-3.52441,9.01228,9.01228,0,0,1,5.34814,1.61133,10.16388,10.16388,0,0,1,3.51026,4.89648,11.88295,11.88295,0,0,1,4.27832-6.19238,11.75242,11.75242,0,0,1,7.05029-2.124,12.68718,12.68718,0,0,1,9.521,4.00781,16.32037,16.32037,0,0,1-.01514,21.09082,12.87449,12.87449,0,0,1-9.65625,4.00683,11.66912,11.66912,0,0,1-7.21631-2.18457A10.93718,10.93718,0,0,1,73.6709,502.99023Zm-9.18945,1.085a6.877,6.877,0,0,0,5.12207-2.01856,7.15048,7.15048,0,0,0,1.98828-5.24316,7.01268,7.01268,0,0,0-1.97315-5.13672,6.52525,6.52525,0,0,0-4.83594-2.00391,6.76563,6.76563,0,0,0-5.0166,2.06445,7.02577,7.02577,0,0,0-2.03369,5.13672,7.09925,7.09925,0,0,0,1.98828,5.15235A6.40044,6.40044,0,0,0,64.48145,504.0752Zm20.39746,1.74707a9.80868,9.80868,0,0,0,4.48974-1.09961A7.75482,7.75482,0,0,0,92.728,501.4541a9.55629,9.55629,0,0,0,1.18994-4.66992,8.75059,8.75059,0,0,0-2.50049-6.418,8.55723,8.55723,0,0,0-6.35742-2.53125,8.70164,8.70164,0,0,0-6.478,2.60645,8.93329,8.93329,0,0,0-2.561,6.52343,8.62566,8.62566,0,0,0,8.85791,8.85743Z" transform="translate(-53.27295 -81.52588)"/><path d="M97.624,473.97461H91.44727v-6.17578H97.624Z" transform="translate(-53.27295 -81.52588)"/><path d="M92.41162,431.37207H97.624v29.19531a9.56126,9.56126,0,0,1-3.76611-.63281,19.90634,19.90634,0,0,1-5.87549-3.57031,55.88484,55.88484,0,0,1-6.68847-7.09571q-5.90553-7.1997-9.35547-9.73144a11.20049,11.20049,0,0,0-6.52295-2.53125,7.24871,7.24871,0,0,0-5.43848,2.30469,8.31609,8.31609,0,0,0-2.21484,6.01172,8.46974,8.46974,0,0,0,2.35009,6.2666,8.89206,8.89206,0,0,0,6.50831,2.37988l-.57276,5.57422q-6.23656-.57129-9.50586-4.30859-3.2688-3.73536-3.269-10.03321,0-6.356,3.52539-10.06347a11.57293,11.57293,0,0,1,8.7373-3.70606,13.26183,13.26183,0,0,1,5.2129,1.085,20.25011,20.25011,0,0,1,5.39306,3.60059,87.789,87.789,0,0,1,7.77344,8.36133q4.09789,4.88085,5.55908,6.2666a17.85033,17.85033,0,0,0,2.9375,2.29Z" transform="translate(-53.27295 -81.52588)"/><path d="M87.41016,424.74316l-.48243-5.21142a9.0466,9.0466,0,0,0,5.333-2.53125,6.94741,6.94741,0,0,0,1.65723-4.79,8.27022,8.27022,0,0,0-1.145-4.38428,9.36329,9.36329,0,0,0-3.05811-3.08838,17.99594,17.99594,0,0,0-5.167-2.01855,27.22156,27.22156,0,0,0-6.6289-.81348q-.3611,0-1.08448.03028a12.41664,12.41664,0,0,1,4.20313,4.44384,12.07966,12.07966,0,0,1,1.61181,6.10108,12.33624,12.33624,0,0,1-3.97705,9.27978q-3.977,3.79688-10.48486,3.79688-6.7185,0-10.81689-3.96289a13.23445,13.23445,0,0,1-4.09766-9.92725,14.15862,14.15862,0,0,1,2.32031-7.87842,14.49369,14.49369,0,0,1,6.61328-5.42334q4.29347-1.853,12.42871-1.853,8.46681,0,13.48291,1.83789a15.79421,15.79421,0,0,1,7.6377,5.46826,14.15648,14.15648,0,0,1,2.62158,8.51172,11.66572,11.66572,0,0,1-10.96728,12.41259ZM67.916,402.53857a10.61713,10.61713,0,0,0-7.41163,2.48584,7.793,7.793,0,0,0-2.74218,5.981,8.257,8.257,0,0,0,2.95263,6.29688,10.94387,10.94387,0,0,0,7.65332,2.68164,9.45324,9.45324,0,0,0,6.8545-2.5459,8.38581,8.38581,0,0,0,2.63623-6.28223,8.04077,8.04077,0,0,0-2.63623-6.19189A10.3851,10.3851,0,0,0,67.916,402.53857Z" transform="translate(-53.27295 -81.52588)"/></svg>