G04 EAGLE Gerber RS-274X export*
G75*
%MOMM*%
%FSLAX34Y34*%
%LPD*%
%INSilkscreen Top*%
%IPPOS*%
%AMOC8*
5,1,8,0,0,1.08239X$1,22.5*%
G01*
%ADD10C,0.076200*%
%ADD11C,0.101600*%
%ADD12C,0.200000*%
%ADD13C,0.400000*%
%ADD14C,0.203200*%
%ADD15C,0.127000*%


D10*
X83864Y36155D02*
X83313Y36706D01*
X82212Y36706D01*
X81661Y36155D01*
X81661Y35604D01*
X82212Y35053D01*
X83313Y35053D01*
X83864Y34503D01*
X83864Y33952D01*
X83313Y33401D01*
X82212Y33401D01*
X81661Y33952D01*
X85403Y33401D02*
X85403Y36706D01*
X86505Y34503D02*
X85403Y33401D01*
X86505Y34503D02*
X87606Y33401D01*
X87606Y36706D01*
X89145Y36706D02*
X89145Y33401D01*
X90798Y33401D01*
X91348Y33952D01*
X91348Y36155D01*
X90798Y36706D01*
X89145Y36706D01*
X92887Y33401D02*
X93989Y33401D01*
X93438Y33401D02*
X93438Y36706D01*
X92887Y36706D02*
X93989Y36706D01*
X95933Y36706D02*
X97034Y36706D01*
X95933Y36706D02*
X95382Y36155D01*
X95382Y33952D01*
X95933Y33401D01*
X97034Y33401D01*
X97585Y33952D01*
X97585Y36155D01*
X97034Y36706D01*
X107443Y36706D02*
X107994Y36155D01*
X107443Y36706D02*
X106342Y36706D01*
X105791Y36155D01*
X105791Y35604D01*
X106342Y35053D01*
X107443Y35053D01*
X107994Y34503D01*
X107994Y33952D01*
X107443Y33401D01*
X106342Y33401D01*
X105791Y33952D01*
X109533Y33401D02*
X109533Y36706D01*
X110635Y34503D02*
X109533Y33401D01*
X110635Y34503D02*
X111736Y33401D01*
X111736Y36706D01*
X114928Y36706D02*
X115478Y36155D01*
X114928Y36706D02*
X113826Y36706D01*
X113275Y36155D01*
X113275Y33952D01*
X113826Y33401D01*
X114928Y33401D01*
X115478Y33952D01*
X117017Y33401D02*
X117017Y36706D01*
X117017Y33401D02*
X119220Y33401D01*
X120759Y33401D02*
X120759Y36706D01*
X120759Y34503D02*
X122962Y36706D01*
X121310Y35053D02*
X122962Y33401D01*
X57531Y33401D02*
X57531Y36706D01*
X59734Y33401D01*
X59734Y36706D01*
X61273Y36706D02*
X61273Y33401D01*
X61273Y36706D02*
X62925Y36706D01*
X63476Y36155D01*
X63476Y35053D01*
X62925Y34503D01*
X61273Y34503D01*
X62375Y34503D02*
X63476Y33401D01*
X66668Y36706D02*
X67218Y36155D01*
X66668Y36706D02*
X65566Y36706D01*
X65015Y36155D01*
X65015Y35604D01*
X65566Y35053D01*
X66668Y35053D01*
X67218Y34503D01*
X67218Y33952D01*
X66668Y33401D01*
X65566Y33401D01*
X65015Y33952D01*
X69859Y33401D02*
X69859Y36706D01*
X70960Y36706D02*
X68757Y36706D01*
X39414Y36155D02*
X38863Y36706D01*
X37762Y36706D01*
X37211Y36155D01*
X37211Y33952D01*
X37762Y33401D01*
X38863Y33401D01*
X39414Y33952D01*
X39414Y35053D01*
X38313Y35053D01*
X40953Y33401D02*
X40953Y36706D01*
X43156Y33401D01*
X43156Y36706D01*
X44695Y36706D02*
X44695Y33401D01*
X46348Y33401D01*
X46898Y33952D01*
X46898Y36155D01*
X46348Y36706D01*
X44695Y36706D01*
X128651Y36706D02*
X128651Y34503D01*
X129753Y33401D01*
X130854Y34503D01*
X130854Y36706D01*
X132393Y36706D02*
X132393Y33401D01*
X134045Y33401D01*
X134596Y33952D01*
X134596Y36155D01*
X134045Y36706D01*
X132393Y36706D01*
X136135Y36706D02*
X136135Y33401D01*
X137788Y33401D01*
X138338Y33952D01*
X138338Y36155D01*
X137788Y36706D01*
X136135Y36706D01*
X146174Y43943D02*
X146725Y44494D01*
X146174Y43943D02*
X146174Y42842D01*
X146725Y42291D01*
X148928Y42291D01*
X149479Y42842D01*
X149479Y43943D01*
X148928Y44494D01*
X147827Y44494D01*
X147827Y43393D01*
X149479Y46033D02*
X146174Y46033D01*
X149479Y48236D01*
X146174Y48236D01*
X146174Y49775D02*
X149479Y49775D01*
X149479Y51428D01*
X148928Y51978D01*
X146725Y51978D01*
X146174Y51428D01*
X146174Y49775D01*
X146174Y65533D02*
X146725Y66084D01*
X146174Y65533D02*
X146174Y64432D01*
X146725Y63881D01*
X148928Y63881D01*
X149479Y64432D01*
X149479Y65533D01*
X148928Y66084D01*
X147827Y66084D01*
X147827Y64983D01*
X149479Y67623D02*
X146174Y67623D01*
X149479Y69826D01*
X146174Y69826D01*
X146174Y71365D02*
X149479Y71365D01*
X149479Y73018D01*
X148928Y73568D01*
X146725Y73568D01*
X146174Y73018D01*
X146174Y71365D01*
X147502Y38051D02*
X145944Y36493D01*
X145944Y34935D01*
X147502Y34935D01*
X149059Y36493D01*
X150148Y35405D02*
X147811Y33068D01*
X148979Y31900D01*
X149758Y31900D01*
X151316Y33457D01*
X151316Y34236D01*
X150148Y35405D01*
X152794Y32759D02*
X150457Y30422D01*
X151625Y29253D01*
X152404Y29253D01*
X153962Y30811D01*
X153962Y31590D01*
X152794Y32759D01*
X122301Y305013D02*
X122301Y307216D01*
X122301Y305013D02*
X123403Y303911D01*
X124504Y305013D01*
X124504Y307216D01*
X126043Y307216D02*
X126043Y303911D01*
X127695Y303911D01*
X128246Y304462D01*
X128246Y306665D01*
X127695Y307216D01*
X126043Y307216D01*
X129785Y307216D02*
X129785Y303911D01*
X131438Y303911D01*
X131988Y304462D01*
X131988Y306665D01*
X131438Y307216D01*
X129785Y307216D01*
X95631Y307216D02*
X95631Y305013D01*
X96733Y303911D01*
X97834Y305013D01*
X97834Y307216D01*
X99373Y307216D02*
X99373Y303911D01*
X101025Y303911D01*
X101576Y304462D01*
X101576Y306665D01*
X101025Y307216D01*
X99373Y307216D01*
X103115Y307216D02*
X103115Y303911D01*
X104768Y303911D01*
X105318Y304462D01*
X105318Y306665D01*
X104768Y307216D01*
X103115Y307216D01*
X106857Y306114D02*
X106857Y303911D01*
X106857Y306114D02*
X107959Y307216D01*
X109060Y306114D01*
X109060Y303911D01*
X109060Y305563D02*
X106857Y305563D01*
X30356Y50419D02*
X27051Y50419D01*
X30356Y50419D02*
X30356Y48767D01*
X29805Y48216D01*
X28703Y48216D01*
X28153Y48767D01*
X28153Y50419D01*
X27051Y46677D02*
X29254Y46677D01*
X30356Y45575D01*
X29254Y44474D01*
X27051Y44474D01*
X28703Y44474D02*
X28703Y46677D01*
X29254Y42935D02*
X30356Y41833D01*
X27051Y41833D01*
X27051Y40732D02*
X27051Y42935D01*
X29254Y39193D02*
X30356Y38091D01*
X27051Y38091D01*
X27051Y36990D02*
X27051Y39193D01*
X23063Y29546D02*
X25400Y27209D01*
X23063Y29546D02*
X24232Y30714D01*
X25010Y30714D01*
X25789Y29935D01*
X25789Y29156D01*
X24621Y27988D01*
X28046Y29855D02*
X26488Y31413D01*
X26488Y32971D01*
X28046Y32971D01*
X29604Y31413D01*
X28435Y32581D02*
X26878Y31023D01*
X29134Y34059D02*
X29134Y35617D01*
X31471Y33280D01*
X30692Y32501D02*
X32250Y34059D01*
X33338Y35147D02*
X34896Y36705D01*
X33338Y35147D02*
X33338Y38263D01*
X32949Y38652D01*
X32170Y38652D01*
X31391Y37873D01*
X31391Y37094D01*
X31626Y75819D02*
X28321Y75819D01*
X31626Y75819D02*
X31626Y74167D01*
X31075Y73616D01*
X29973Y73616D01*
X29423Y74167D01*
X29423Y75819D01*
X28321Y72077D02*
X30524Y72077D01*
X31626Y70975D01*
X30524Y69874D01*
X28321Y69874D01*
X29973Y69874D02*
X29973Y72077D01*
X30524Y68335D02*
X31626Y67233D01*
X28321Y67233D01*
X28321Y66132D02*
X28321Y68335D01*
X28872Y64593D02*
X31075Y64593D01*
X31626Y64042D01*
X31626Y62940D01*
X31075Y62390D01*
X28872Y62390D01*
X28321Y62940D01*
X28321Y64042D01*
X28872Y64593D01*
X31075Y62390D01*
X31626Y98679D02*
X28321Y98679D01*
X31626Y98679D02*
X31626Y97027D01*
X31075Y96476D01*
X29973Y96476D01*
X29423Y97027D01*
X29423Y98679D01*
X28321Y94937D02*
X30524Y94937D01*
X31626Y93835D01*
X30524Y92734D01*
X28321Y92734D01*
X29973Y92734D02*
X29973Y94937D01*
X28872Y91195D02*
X28321Y90644D01*
X28321Y89542D01*
X28872Y88992D01*
X31075Y88992D01*
X31626Y89542D01*
X31626Y90644D01*
X31075Y91195D01*
X30524Y91195D01*
X29973Y90644D01*
X29973Y88992D01*
X28321Y124079D02*
X31626Y124079D01*
X31626Y122427D01*
X31075Y121876D01*
X29973Y121876D01*
X29423Y122427D01*
X29423Y124079D01*
X28321Y120337D02*
X30524Y120337D01*
X31626Y119235D01*
X30524Y118134D01*
X28321Y118134D01*
X29973Y118134D02*
X29973Y120337D01*
X31075Y116595D02*
X31626Y116044D01*
X31626Y114942D01*
X31075Y114392D01*
X30524Y114392D01*
X29973Y114942D01*
X29423Y114392D01*
X28872Y114392D01*
X28321Y114942D01*
X28321Y116044D01*
X28872Y116595D01*
X29423Y116595D01*
X29973Y116044D01*
X30524Y116595D01*
X31075Y116595D01*
X29973Y116044D02*
X29973Y114942D01*
X28321Y149479D02*
X31626Y149479D01*
X31626Y147827D01*
X31075Y147276D01*
X29973Y147276D01*
X29423Y147827D01*
X29423Y149479D01*
X28321Y145737D02*
X30524Y145737D01*
X31626Y144635D01*
X30524Y143534D01*
X28321Y143534D01*
X29973Y143534D02*
X29973Y145737D01*
X31626Y141995D02*
X31626Y139792D01*
X31075Y139792D01*
X28872Y141995D01*
X28321Y141995D01*
X28321Y174879D02*
X31626Y174879D01*
X31626Y173227D01*
X31075Y172676D01*
X29973Y172676D01*
X29423Y173227D01*
X29423Y174879D01*
X28321Y171137D02*
X30524Y171137D01*
X31626Y170035D01*
X30524Y168934D01*
X28321Y168934D01*
X29973Y168934D02*
X29973Y171137D01*
X31075Y166293D02*
X31626Y165192D01*
X31075Y166293D02*
X29973Y167395D01*
X28872Y167395D01*
X28321Y166844D01*
X28321Y165742D01*
X28872Y165192D01*
X29423Y165192D01*
X29973Y165742D01*
X29973Y167395D01*
X28321Y200279D02*
X31626Y200279D01*
X31626Y198627D01*
X31075Y198076D01*
X29973Y198076D01*
X29423Y198627D01*
X29423Y200279D01*
X28321Y196537D02*
X30524Y196537D01*
X31626Y195435D01*
X30524Y194334D01*
X28321Y194334D01*
X29973Y194334D02*
X29973Y196537D01*
X31626Y192795D02*
X31626Y190592D01*
X31626Y192795D02*
X29973Y192795D01*
X30524Y191693D01*
X30524Y191142D01*
X29973Y190592D01*
X28872Y190592D01*
X28321Y191142D01*
X28321Y192244D01*
X28872Y192795D01*
X28321Y225679D02*
X31626Y225679D01*
X31626Y224027D01*
X31075Y223476D01*
X29973Y223476D01*
X29423Y224027D01*
X29423Y225679D01*
X28321Y221937D02*
X30524Y221937D01*
X31626Y220835D01*
X30524Y219734D01*
X28321Y219734D01*
X29973Y219734D02*
X29973Y221937D01*
X28321Y216542D02*
X31626Y216542D01*
X29973Y218195D01*
X29973Y215992D01*
X28321Y251079D02*
X31626Y251079D01*
X31626Y249427D01*
X31075Y248876D01*
X29973Y248876D01*
X29423Y249427D01*
X29423Y251079D01*
X28321Y247337D02*
X30524Y247337D01*
X31626Y246235D01*
X30524Y245134D01*
X28321Y245134D01*
X29973Y245134D02*
X29973Y247337D01*
X31075Y243595D02*
X31626Y243044D01*
X31626Y241942D01*
X31075Y241392D01*
X30524Y241392D01*
X29973Y241942D01*
X29973Y242493D01*
X29973Y241942D02*
X29423Y241392D01*
X28872Y241392D01*
X28321Y241942D01*
X28321Y243044D01*
X28872Y243595D01*
X28321Y276479D02*
X31626Y276479D01*
X31626Y274827D01*
X31075Y274276D01*
X29973Y274276D01*
X29423Y274827D01*
X29423Y276479D01*
X28321Y272737D02*
X30524Y272737D01*
X31626Y271635D01*
X30524Y270534D01*
X28321Y270534D01*
X29973Y270534D02*
X29973Y272737D01*
X28321Y268995D02*
X28321Y266792D01*
X28321Y268995D02*
X30524Y266792D01*
X31075Y266792D01*
X31626Y267342D01*
X31626Y268444D01*
X31075Y268995D01*
X31626Y301879D02*
X28321Y301879D01*
X31626Y301879D02*
X31626Y300227D01*
X31075Y299676D01*
X29973Y299676D01*
X29423Y300227D01*
X29423Y301879D01*
X28321Y298137D02*
X30524Y298137D01*
X31626Y297035D01*
X30524Y295934D01*
X28321Y295934D01*
X29973Y295934D02*
X29973Y298137D01*
X30524Y294395D02*
X31626Y293293D01*
X28321Y293293D01*
X28321Y292192D02*
X28321Y294395D01*
X28321Y327279D02*
X31626Y327279D01*
X31626Y325627D01*
X31075Y325076D01*
X29973Y325076D01*
X29423Y325627D01*
X29423Y327279D01*
X28321Y323537D02*
X30524Y323537D01*
X31626Y322435D01*
X30524Y321334D01*
X28321Y321334D01*
X29973Y321334D02*
X29973Y323537D01*
X28872Y319795D02*
X31075Y319795D01*
X31626Y319244D01*
X31626Y318142D01*
X31075Y317592D01*
X28872Y317592D01*
X28321Y318142D01*
X28321Y319244D01*
X28872Y319795D01*
X31075Y317592D01*
X146174Y86741D02*
X149479Y86741D01*
X146174Y86741D02*
X146174Y88393D01*
X146725Y88944D01*
X147827Y88944D01*
X148377Y88393D01*
X148377Y86741D01*
X149479Y90483D02*
X147276Y90483D01*
X146174Y91585D01*
X147276Y92686D01*
X149479Y92686D01*
X147827Y92686D02*
X147827Y90483D01*
X147276Y94225D02*
X146174Y95327D01*
X149479Y95327D01*
X149479Y96428D02*
X149479Y94225D01*
X146174Y97967D02*
X146174Y100170D01*
X146174Y97967D02*
X147827Y97967D01*
X147276Y99069D01*
X147276Y99620D01*
X147827Y100170D01*
X148928Y100170D01*
X149479Y99620D01*
X149479Y98518D01*
X148928Y97967D01*
X149479Y114681D02*
X146174Y114681D01*
X146174Y116333D01*
X146725Y116884D01*
X147827Y116884D01*
X148377Y116333D01*
X148377Y114681D01*
X149479Y118423D02*
X146174Y118423D01*
X146174Y120075D01*
X146725Y120626D01*
X147276Y120626D01*
X147827Y120075D01*
X148377Y120626D01*
X148928Y120626D01*
X149479Y120075D01*
X149479Y118423D01*
X147827Y118423D02*
X147827Y120075D01*
X148928Y122165D02*
X146725Y122165D01*
X146174Y122716D01*
X146174Y123818D01*
X146725Y124368D01*
X148928Y124368D01*
X149479Y123818D01*
X149479Y122716D01*
X148928Y122165D01*
X146725Y124368D01*
X146174Y140081D02*
X149479Y140081D01*
X146174Y140081D02*
X146174Y141733D01*
X146725Y142284D01*
X147827Y142284D01*
X148377Y141733D01*
X148377Y140081D01*
X149479Y143823D02*
X146174Y143823D01*
X146174Y145475D01*
X146725Y146026D01*
X147276Y146026D01*
X147827Y145475D01*
X148377Y146026D01*
X148928Y146026D01*
X149479Y145475D01*
X149479Y143823D01*
X147827Y143823D02*
X147827Y145475D01*
X147276Y147565D02*
X146174Y148667D01*
X149479Y148667D01*
X149479Y149768D02*
X149479Y147565D01*
X149479Y165481D02*
X146174Y165481D01*
X146174Y167133D01*
X146725Y167684D01*
X147827Y167684D01*
X148377Y167133D01*
X148377Y165481D01*
X149479Y169223D02*
X146174Y169223D01*
X146174Y170875D01*
X146725Y171426D01*
X147276Y171426D01*
X147827Y170875D01*
X148377Y171426D01*
X148928Y171426D01*
X149479Y170875D01*
X149479Y169223D01*
X147827Y169223D02*
X147827Y170875D01*
X146725Y172965D02*
X146174Y173516D01*
X146174Y174618D01*
X146725Y175168D01*
X147276Y175168D01*
X147827Y174618D01*
X147827Y174067D01*
X147827Y174618D02*
X148377Y175168D01*
X148928Y175168D01*
X149479Y174618D01*
X149479Y173516D01*
X148928Y172965D01*
X149479Y190881D02*
X146174Y190881D01*
X146174Y192533D01*
X146725Y193084D01*
X147827Y193084D01*
X148377Y192533D01*
X148377Y190881D01*
X149479Y194623D02*
X146174Y194623D01*
X146174Y196275D01*
X146725Y196826D01*
X147276Y196826D01*
X147827Y196275D01*
X148377Y196826D01*
X148928Y196826D01*
X149479Y196275D01*
X149479Y194623D01*
X147827Y194623D02*
X147827Y196275D01*
X149479Y200018D02*
X146174Y200018D01*
X147827Y198365D01*
X147827Y200568D01*
X149479Y216281D02*
X146174Y216281D01*
X146174Y217933D01*
X146725Y218484D01*
X147827Y218484D01*
X148377Y217933D01*
X148377Y216281D01*
X149479Y220023D02*
X146174Y220023D01*
X146174Y221675D01*
X146725Y222226D01*
X147276Y222226D01*
X147827Y221675D01*
X148377Y222226D01*
X148928Y222226D01*
X149479Y221675D01*
X149479Y220023D01*
X147827Y220023D02*
X147827Y221675D01*
X146174Y223765D02*
X146174Y225968D01*
X146174Y223765D02*
X147827Y223765D01*
X147276Y224867D01*
X147276Y225418D01*
X147827Y225968D01*
X148928Y225968D01*
X149479Y225418D01*
X149479Y224316D01*
X148928Y223765D01*
X149479Y241681D02*
X146174Y241681D01*
X146174Y243333D01*
X146725Y243884D01*
X147827Y243884D01*
X148377Y243333D01*
X148377Y241681D01*
X149479Y245423D02*
X146174Y245423D01*
X146174Y247075D01*
X146725Y247626D01*
X147276Y247626D01*
X147827Y247075D01*
X148377Y247626D01*
X148928Y247626D01*
X149479Y247075D01*
X149479Y245423D01*
X147827Y245423D02*
X147827Y247075D01*
X146725Y250267D02*
X146174Y251368D01*
X146725Y250267D02*
X147827Y249165D01*
X148928Y249165D01*
X149479Y249716D01*
X149479Y250818D01*
X148928Y251368D01*
X148377Y251368D01*
X147827Y250818D01*
X147827Y249165D01*
X149479Y267081D02*
X146174Y267081D01*
X146174Y268733D01*
X146725Y269284D01*
X147827Y269284D01*
X148377Y268733D01*
X148377Y267081D01*
X149479Y270823D02*
X146174Y270823D01*
X146174Y272475D01*
X146725Y273026D01*
X147276Y273026D01*
X147827Y272475D01*
X148377Y273026D01*
X148928Y273026D01*
X149479Y272475D01*
X149479Y270823D01*
X147827Y270823D02*
X147827Y272475D01*
X146174Y274565D02*
X146174Y276768D01*
X146725Y276768D01*
X148928Y274565D01*
X149479Y274565D01*
X149479Y292481D02*
X146174Y292481D01*
X146174Y294133D01*
X146725Y294684D01*
X147827Y294684D01*
X148377Y294133D01*
X148377Y292481D01*
X149479Y296223D02*
X146174Y296223D01*
X146174Y298426D01*
X147827Y297325D02*
X147827Y296223D01*
X148928Y299965D02*
X146725Y299965D01*
X146174Y300516D01*
X146174Y301618D01*
X146725Y302168D01*
X148928Y302168D01*
X149479Y301618D01*
X149479Y300516D01*
X148928Y299965D01*
X146725Y302168D01*
X146174Y317881D02*
X149479Y317881D01*
X146174Y317881D02*
X146174Y319533D01*
X146725Y320084D01*
X147827Y320084D01*
X148377Y319533D01*
X148377Y317881D01*
X149479Y321623D02*
X146174Y321623D01*
X146174Y323826D01*
X147827Y322725D02*
X147827Y321623D01*
X147276Y325365D02*
X146174Y326467D01*
X149479Y326467D01*
X149479Y327568D02*
X149479Y325365D01*
D11*
X75187Y72898D02*
X71628Y72898D01*
X75187Y72898D02*
X76373Y74084D01*
X75187Y75271D01*
X72814Y75271D01*
X71628Y76457D01*
X72814Y77643D01*
X76373Y77643D01*
X79112Y77643D02*
X80299Y77643D01*
X80299Y72898D01*
X81485Y72898D02*
X79112Y72898D01*
X80299Y80016D02*
X80299Y81202D01*
X84102Y80016D02*
X85288Y80016D01*
X85288Y72898D01*
X84102Y72898D02*
X86474Y72898D01*
X90277Y72898D02*
X92650Y72898D01*
X90277Y72898D02*
X89091Y74084D01*
X89091Y76457D01*
X90277Y77643D01*
X92650Y77643D01*
X93836Y76457D01*
X93836Y75271D01*
X89091Y75271D01*
X96575Y77643D02*
X96575Y72898D01*
X96575Y77643D02*
X100134Y77643D01*
X101321Y76457D01*
X101321Y72898D01*
X105246Y74084D02*
X105246Y78830D01*
X105246Y74084D02*
X106432Y72898D01*
X106432Y77643D02*
X104059Y77643D01*
X91613Y64008D02*
X86868Y68753D01*
X86868Y64008D02*
X91613Y68753D01*
X66548Y59696D02*
X66548Y52578D01*
X66548Y56137D02*
X67734Y57323D01*
X70107Y57323D01*
X71293Y56137D01*
X71293Y52578D01*
X74032Y53764D02*
X74032Y58510D01*
X75219Y59696D01*
X77591Y59696D01*
X78778Y58510D01*
X78778Y53764D01*
X77591Y52578D01*
X75219Y52578D01*
X74032Y53764D01*
X78778Y58510D01*
X81516Y57323D02*
X81516Y53764D01*
X82703Y52578D01*
X83889Y53764D01*
X85075Y52578D01*
X86262Y53764D01*
X86262Y57323D01*
X89000Y59696D02*
X90187Y59696D01*
X90187Y52578D01*
X91373Y52578D02*
X89000Y52578D01*
X93990Y56137D02*
X98735Y56137D01*
X101474Y57323D02*
X103847Y59696D01*
X103847Y52578D01*
X106219Y52578D02*
X101474Y52578D01*
X112517Y52578D02*
X112517Y59696D01*
X108958Y56137D01*
X113704Y56137D01*
D10*
X68961Y303657D02*
X68961Y306962D01*
X70613Y306962D01*
X71164Y306411D01*
X71164Y305860D01*
X70613Y305309D01*
X71164Y304759D01*
X71164Y304208D01*
X70613Y303657D01*
X68961Y303657D01*
X68961Y305309D02*
X70613Y305309D01*
X73254Y306962D02*
X74355Y306962D01*
X73254Y306962D02*
X72703Y306411D01*
X72703Y304208D01*
X73254Y303657D01*
X74355Y303657D01*
X74906Y304208D01*
X74906Y306411D01*
X74355Y306962D01*
X76996Y306962D02*
X78098Y306962D01*
X76996Y306962D02*
X76445Y306411D01*
X76445Y304208D01*
X76996Y303657D01*
X78098Y303657D01*
X78648Y304208D01*
X78648Y306411D01*
X78098Y306962D01*
X81289Y306962D02*
X81289Y303657D01*
X80187Y306962D02*
X82390Y306962D01*
X83929Y306411D02*
X83929Y304208D01*
X83929Y306411D02*
X84480Y306962D01*
X85582Y306962D01*
X86132Y306411D01*
X86132Y304208D01*
X85582Y303657D01*
X84480Y303657D01*
X83929Y304208D01*
X86132Y306411D01*
X68961Y300866D02*
X68961Y297561D01*
X68961Y300866D02*
X71164Y300866D01*
X70063Y299213D02*
X68961Y299213D01*
X72703Y300866D02*
X72703Y297561D01*
X74906Y297561D01*
X76996Y300866D02*
X78098Y300866D01*
X76996Y300866D02*
X76445Y300315D01*
X76445Y298112D01*
X76996Y297561D01*
X78098Y297561D01*
X78648Y298112D01*
X78648Y300315D01*
X78098Y300866D01*
X80187Y299764D02*
X80187Y297561D01*
X80187Y299764D02*
X81289Y300866D01*
X82390Y299764D01*
X82390Y297561D01*
X82390Y299213D02*
X80187Y299213D01*
X85031Y297561D02*
X85031Y300866D01*
X86132Y300866D02*
X83929Y300866D01*
X42291Y303657D02*
X42291Y306962D01*
X43943Y306962D01*
X44494Y306411D01*
X44494Y305860D01*
X43943Y305309D01*
X44494Y304759D01*
X44494Y304208D01*
X43943Y303657D01*
X42291Y303657D01*
X42291Y305309D02*
X43943Y305309D01*
X46584Y306962D02*
X47685Y306962D01*
X46584Y306962D02*
X46033Y306411D01*
X46033Y304208D01*
X46584Y303657D01*
X47685Y303657D01*
X48236Y304208D01*
X48236Y306411D01*
X47685Y306962D01*
X50326Y306962D02*
X51428Y306962D01*
X50326Y306962D02*
X49775Y306411D01*
X49775Y304208D01*
X50326Y303657D01*
X51428Y303657D01*
X51978Y304208D01*
X51978Y306411D01*
X51428Y306962D01*
X54619Y306962D02*
X54619Y303657D01*
X53517Y306962D02*
X55720Y306962D01*
X57259Y306411D02*
X57259Y304208D01*
X57259Y306411D02*
X57810Y306962D01*
X58912Y306962D01*
X59462Y306411D01*
X59462Y304208D01*
X58912Y303657D01*
X57810Y303657D01*
X57259Y304208D01*
X59462Y306411D01*
X42291Y300866D02*
X42291Y297561D01*
X42291Y300866D02*
X43943Y300866D01*
X44494Y300315D01*
X44494Y299213D01*
X43943Y298663D01*
X42291Y298663D01*
X46033Y297561D02*
X46033Y300866D01*
X46033Y297561D02*
X47685Y297561D01*
X48236Y298112D01*
X48236Y300315D01*
X47685Y300866D01*
X46033Y300866D01*
X50326Y300866D02*
X51428Y300866D01*
X50326Y300866D02*
X49775Y300315D01*
X49775Y298112D01*
X50326Y297561D01*
X51428Y297561D01*
X51978Y298112D01*
X51978Y300315D01*
X51428Y300866D01*
X53517Y300866D02*
X53517Y297561D01*
X54619Y298663D01*
X55720Y297561D01*
X55720Y300866D01*
X57259Y300866D02*
X57259Y297561D01*
X59462Y297561D02*
X57259Y300866D01*
X59462Y300866D02*
X59462Y297561D01*
D12*
X119656Y217228D02*
X119656Y154228D01*
X56656Y154228D01*
X56656Y217228D01*
X119656Y217228D01*
D13*
X126156Y231478D02*
X126158Y231567D01*
X126164Y231656D01*
X126174Y231745D01*
X126188Y231833D01*
X126205Y231920D01*
X126227Y232006D01*
X126253Y232092D01*
X126282Y232176D01*
X126315Y232259D01*
X126351Y232340D01*
X126392Y232420D01*
X126435Y232497D01*
X126482Y232573D01*
X126533Y232646D01*
X126586Y232717D01*
X126643Y232786D01*
X126703Y232852D01*
X126766Y232916D01*
X126831Y232976D01*
X126899Y233034D01*
X126970Y233088D01*
X127043Y233139D01*
X127118Y233187D01*
X127195Y233232D01*
X127274Y233273D01*
X127355Y233310D01*
X127437Y233344D01*
X127521Y233375D01*
X127606Y233401D01*
X127692Y233424D01*
X127779Y233442D01*
X127867Y233457D01*
X127956Y233468D01*
X128045Y233475D01*
X128134Y233478D01*
X128223Y233477D01*
X128312Y233472D01*
X128400Y233463D01*
X128489Y233450D01*
X128576Y233433D01*
X128663Y233413D01*
X128749Y233388D01*
X128833Y233360D01*
X128916Y233328D01*
X128998Y233292D01*
X129078Y233253D01*
X129156Y233210D01*
X129232Y233164D01*
X129306Y233114D01*
X129378Y233061D01*
X129447Y233005D01*
X129514Y232946D01*
X129578Y232884D01*
X129639Y232820D01*
X129698Y232752D01*
X129753Y232682D01*
X129805Y232610D01*
X129854Y232535D01*
X129899Y232459D01*
X129941Y232380D01*
X129979Y232300D01*
X130014Y232218D01*
X130045Y232134D01*
X130073Y232049D01*
X130096Y231963D01*
X130116Y231876D01*
X130132Y231789D01*
X130144Y231700D01*
X130152Y231612D01*
X130156Y231523D01*
X130156Y231433D01*
X130152Y231344D01*
X130144Y231256D01*
X130132Y231167D01*
X130116Y231080D01*
X130096Y230993D01*
X130073Y230907D01*
X130045Y230822D01*
X130014Y230738D01*
X129979Y230656D01*
X129941Y230576D01*
X129899Y230497D01*
X129854Y230421D01*
X129805Y230346D01*
X129753Y230274D01*
X129698Y230204D01*
X129639Y230136D01*
X129578Y230072D01*
X129514Y230010D01*
X129447Y229951D01*
X129378Y229895D01*
X129306Y229842D01*
X129232Y229792D01*
X129156Y229746D01*
X129078Y229703D01*
X128998Y229664D01*
X128916Y229628D01*
X128833Y229596D01*
X128749Y229568D01*
X128663Y229543D01*
X128576Y229523D01*
X128489Y229506D01*
X128400Y229493D01*
X128312Y229484D01*
X128223Y229479D01*
X128134Y229478D01*
X128045Y229481D01*
X127956Y229488D01*
X127867Y229499D01*
X127779Y229514D01*
X127692Y229532D01*
X127606Y229555D01*
X127521Y229581D01*
X127437Y229612D01*
X127355Y229646D01*
X127274Y229683D01*
X127195Y229724D01*
X127118Y229769D01*
X127043Y229817D01*
X126970Y229868D01*
X126899Y229922D01*
X126831Y229980D01*
X126766Y230040D01*
X126703Y230104D01*
X126643Y230170D01*
X126586Y230239D01*
X126533Y230310D01*
X126482Y230383D01*
X126435Y230459D01*
X126392Y230536D01*
X126351Y230616D01*
X126315Y230697D01*
X126282Y230780D01*
X126253Y230864D01*
X126227Y230950D01*
X126205Y231036D01*
X126188Y231123D01*
X126174Y231211D01*
X126164Y231300D01*
X126158Y231389D01*
X126156Y231478D01*
D14*
X0Y176530D02*
X0Y163830D01*
X0Y176530D02*
X6350Y182880D01*
X19050Y182880D02*
X25400Y176530D01*
X0Y138430D02*
X6350Y132080D01*
X0Y138430D02*
X0Y151130D01*
X6350Y157480D01*
X19050Y157480D02*
X25400Y151130D01*
X25400Y138430D01*
X19050Y132080D01*
X6350Y157480D02*
X0Y163830D01*
X19050Y157480D02*
X25400Y163830D01*
X25400Y176530D01*
X0Y100330D02*
X0Y87630D01*
X0Y100330D02*
X6350Y106680D01*
X19050Y106680D02*
X25400Y100330D01*
X6350Y106680D02*
X0Y113030D01*
X0Y125730D01*
X6350Y132080D01*
X19050Y132080D02*
X25400Y125730D01*
X25400Y113030D01*
X19050Y106680D01*
X0Y62230D02*
X6350Y55880D01*
X0Y62230D02*
X0Y74930D01*
X6350Y81280D01*
X19050Y81280D02*
X25400Y74930D01*
X25400Y62230D01*
X19050Y55880D01*
X6350Y81280D02*
X0Y87630D01*
X19050Y81280D02*
X25400Y87630D01*
X25400Y100330D01*
X0Y24130D02*
X0Y11430D01*
X0Y24130D02*
X6350Y30480D01*
X19050Y30480D02*
X25400Y24130D01*
X6350Y30480D02*
X0Y36830D01*
X0Y49530D01*
X6350Y55880D01*
X19050Y55880D02*
X25400Y49530D01*
X25400Y36830D01*
X19050Y30480D01*
X19050Y5080D02*
X6350Y5080D01*
X0Y11430D01*
X19050Y5080D02*
X25400Y11430D01*
X25400Y24130D01*
X6350Y309880D02*
X0Y316230D01*
X0Y328930D01*
X6350Y335280D01*
X19050Y335280D02*
X25400Y328930D01*
X25400Y316230D01*
X19050Y309880D01*
X19050Y335280D02*
X6350Y335280D01*
X0Y278130D02*
X0Y265430D01*
X0Y278130D02*
X6350Y284480D01*
X19050Y284480D02*
X25400Y278130D01*
X6350Y284480D02*
X0Y290830D01*
X0Y303530D01*
X6350Y309880D01*
X19050Y309880D02*
X25400Y303530D01*
X25400Y290830D01*
X19050Y284480D01*
X0Y240030D02*
X6350Y233680D01*
X0Y240030D02*
X0Y252730D01*
X6350Y259080D01*
X19050Y259080D02*
X25400Y252730D01*
X25400Y240030D01*
X19050Y233680D01*
X6350Y259080D02*
X0Y265430D01*
X19050Y259080D02*
X25400Y265430D01*
X25400Y278130D01*
X0Y201930D02*
X0Y189230D01*
X0Y201930D02*
X6350Y208280D01*
X19050Y208280D02*
X25400Y201930D01*
X6350Y208280D02*
X0Y214630D01*
X0Y227330D01*
X6350Y233680D01*
X19050Y233680D02*
X25400Y227330D01*
X25400Y214630D01*
X19050Y208280D01*
X0Y189230D02*
X6350Y182880D01*
X19050Y182880D02*
X25400Y189230D01*
X25400Y201930D01*
D15*
X-1905Y3980D02*
X-2710Y3175D01*
X-1905Y3980D02*
X-1905Y4785D01*
X-2710Y5590D01*
X-6735Y5590D01*
X-6735Y4785D02*
X-6735Y6395D01*
X-5125Y8788D02*
X-6735Y10398D01*
X-1905Y10398D01*
X-1905Y8788D02*
X-1905Y12008D01*
D14*
X177800Y163830D02*
X177800Y176530D01*
X177800Y163830D02*
X171450Y157480D01*
X158750Y157480D02*
X152400Y163830D01*
X177800Y201930D02*
X171450Y208280D01*
X177800Y201930D02*
X177800Y189230D01*
X171450Y182880D01*
X158750Y182880D02*
X152400Y189230D01*
X152400Y201930D01*
X158750Y208280D01*
X171450Y182880D02*
X177800Y176530D01*
X158750Y182880D02*
X152400Y176530D01*
X152400Y163830D01*
X177800Y240030D02*
X177800Y252730D01*
X177800Y240030D02*
X171450Y233680D01*
X158750Y233680D02*
X152400Y240030D01*
X171450Y233680D02*
X177800Y227330D01*
X177800Y214630D01*
X171450Y208280D01*
X158750Y208280D02*
X152400Y214630D01*
X152400Y227330D01*
X158750Y233680D01*
X177800Y278130D02*
X171450Y284480D01*
X177800Y278130D02*
X177800Y265430D01*
X171450Y259080D01*
X158750Y259080D02*
X152400Y265430D01*
X152400Y278130D01*
X158750Y284480D01*
X171450Y259080D02*
X177800Y252730D01*
X158750Y259080D02*
X152400Y252730D01*
X152400Y240030D01*
X177800Y316230D02*
X177800Y328930D01*
X177800Y316230D02*
X171450Y309880D01*
X158750Y309880D02*
X152400Y316230D01*
X171450Y309880D02*
X177800Y303530D01*
X177800Y290830D01*
X171450Y284480D01*
X158750Y284480D02*
X152400Y290830D01*
X152400Y303530D01*
X158750Y309880D01*
X158750Y335280D02*
X171450Y335280D01*
X177800Y328930D01*
X158750Y335280D02*
X152400Y328930D01*
X152400Y316230D01*
X171450Y30480D02*
X177800Y24130D01*
X177800Y11430D01*
X171450Y5080D01*
X158750Y5080D02*
X152400Y11430D01*
X152400Y24130D01*
X158750Y30480D01*
X158750Y5080D02*
X171450Y5080D01*
X177800Y62230D02*
X177800Y74930D01*
X177800Y62230D02*
X171450Y55880D01*
X158750Y55880D02*
X152400Y62230D01*
X171450Y55880D02*
X177800Y49530D01*
X177800Y36830D01*
X171450Y30480D01*
X158750Y30480D02*
X152400Y36830D01*
X152400Y49530D01*
X158750Y55880D01*
X177800Y100330D02*
X171450Y106680D01*
X177800Y100330D02*
X177800Y87630D01*
X171450Y81280D01*
X158750Y81280D02*
X152400Y87630D01*
X152400Y100330D01*
X158750Y106680D01*
X171450Y81280D02*
X177800Y74930D01*
X158750Y81280D02*
X152400Y74930D01*
X152400Y62230D01*
X177800Y138430D02*
X177800Y151130D01*
X177800Y138430D02*
X171450Y132080D01*
X158750Y132080D02*
X152400Y138430D01*
X171450Y132080D02*
X177800Y125730D01*
X177800Y113030D01*
X171450Y106680D01*
X158750Y106680D02*
X152400Y113030D01*
X152400Y125730D01*
X158750Y132080D01*
X177800Y151130D02*
X171450Y157480D01*
X158750Y157480D02*
X152400Y151130D01*
X152400Y138430D01*
D15*
X183726Y324689D02*
X184531Y325494D01*
X184531Y326299D01*
X183726Y327104D01*
X179701Y327104D01*
X179701Y326299D02*
X179701Y327909D01*
X184531Y330302D02*
X184531Y333522D01*
X184531Y330302D02*
X181311Y333522D01*
X180506Y333522D01*
X179701Y332717D01*
X179701Y331107D01*
X180506Y330302D01*
D14*
X69850Y5080D02*
X57150Y5080D01*
X50800Y11430D01*
X50800Y24130D02*
X57150Y30480D01*
X50800Y11430D02*
X44450Y5080D01*
X31750Y5080D01*
X25400Y11430D01*
X25400Y24130D02*
X31750Y30480D01*
X44450Y30480D01*
X50800Y24130D01*
X95250Y5080D02*
X101600Y11430D01*
X95250Y5080D02*
X82550Y5080D01*
X76200Y11430D01*
X76200Y24130D02*
X82550Y30480D01*
X95250Y30480D01*
X101600Y24130D01*
X76200Y11430D02*
X69850Y5080D01*
X76200Y24130D02*
X69850Y30480D01*
X57150Y30480D01*
X133350Y5080D02*
X146050Y5080D01*
X133350Y5080D02*
X127000Y11430D01*
X127000Y24130D02*
X133350Y30480D01*
X127000Y11430D02*
X120650Y5080D01*
X107950Y5080D01*
X101600Y11430D01*
X101600Y24130D02*
X107950Y30480D01*
X120650Y30480D01*
X127000Y24130D01*
X152400Y24130D02*
X152400Y11430D01*
X146050Y5080D01*
X152400Y24130D02*
X146050Y30480D01*
X133350Y30480D01*
X25400Y24130D02*
X25400Y11430D01*
D15*
X141809Y-846D02*
X142614Y-1651D01*
X143419Y-1651D01*
X144224Y-846D01*
X144224Y3179D01*
X143419Y3179D02*
X145029Y3179D01*
X147422Y2374D02*
X148227Y3179D01*
X149837Y3179D01*
X150642Y2374D01*
X150642Y1569D01*
X149837Y764D01*
X149032Y764D01*
X149837Y764D02*
X150642Y-41D01*
X150642Y-846D01*
X149837Y-1651D01*
X148227Y-1651D01*
X147422Y-846D01*
D12*
X109964Y244414D02*
X109964Y254914D01*
X48430Y137160D02*
X37930Y137160D01*
X104140Y264780D02*
X104140Y278780D01*
X53340Y117490D02*
X53340Y103490D01*
D14*
X94996Y336042D02*
X107696Y336042D01*
X114046Y329692D01*
X114046Y316992D02*
X107696Y310642D01*
X114046Y329692D02*
X120396Y336042D01*
X133096Y336042D01*
X139446Y329692D01*
X139446Y316992D02*
X133096Y310642D01*
X120396Y310642D01*
X114046Y316992D01*
X88646Y316992D02*
X88646Y329692D01*
X94996Y336042D01*
X88646Y316992D02*
X94996Y310642D01*
X107696Y310642D01*
X139446Y316992D02*
X139446Y329692D01*
X57404Y335534D02*
X44704Y335534D01*
X57404Y335534D02*
X63754Y329184D01*
X63754Y316484D02*
X57404Y310134D01*
X63754Y329184D02*
X70104Y335534D01*
X82804Y335534D01*
X89154Y329184D01*
X89154Y316484D02*
X82804Y310134D01*
X70104Y310134D01*
X63754Y316484D01*
X38354Y316484D02*
X38354Y329184D01*
X44704Y335534D01*
X38354Y316484D02*
X44704Y310134D01*
X57404Y310134D01*
X89154Y316484D02*
X89154Y329184D01*
M02*
